<?xml version="1.0" standalone="no"?>
<!DOCTYPE svg PUBLIC "-//W3C//DTD SVG 20010904//EN"
 "http://www.w3.org/TR/2001/REC-SVG-20010904/DTD/svg10.dtd">
<svg version="1.0" xmlns="http://www.w3.org/2000/svg"
 width="900.000000pt" height="900.000000pt" viewBox="0 0 900.000000 900.000000"
 preserveAspectRatio="xMidYMid meet">
<metadata>
Created by potrace 1.11, written by Peter Selinger 2001-2013
</metadata>
<g transform="translate(0.000000,900.000000) scale(0.100000,-0.100000)"
fill="#000000" stroke="none">
<path d="M2430 6345 l0 -75 1140 0 1140 0 0 -2055 0 -2055 1210 0 1210 0 0 75
0 75 -1135 0 -1135 0 0 950 0 950 1135 0 1135 0 0 1105 0 1105 -2350 0 -2350
0 0 -75z m4550 -1035 l0 -950 -1060 0 -1060 0 0 950 0 950 1060 0 1060 0 0
-950z"/>
</g>
</svg>
