<?xml version="1.0" standalone="no"?>
<!DOCTYPE svg PUBLIC "-//W3C//DTD SVG 1.1//EN" "http://www.w3.org/Graphics/SVG/1.1/DTD/svg11.dtd" >
<svg xmlns="http://www.w3.org/2000/svg" xmlns:xlink="http://www.w3.org/1999/xlink" version="1.1">
<metadata></metadata>
<defs>
<font id="jetbrains_monobold" horiz-adv-x="1228" >
<font-face units-per-em="2048" ascent="1638" descent="-410" />
<missing-glyph horiz-adv-x="500" />
<glyph horiz-adv-x="0" />
<glyph horiz-adv-x="682" />
<glyph unicode="&#xd;" />
<glyph unicode=" " />
<glyph unicode="!" d="M442 125q0 59 39 97t103 38h61q66 0 103.5 -38t37.5 -97t-39.5 -97t-103.5 -38h-59q-63 0 -102.5 38t-39.5 97zM475 1212v283h279v-283l-45 -735h-189z" />
<glyph unicode="&#x22;" d="M260 1227v268h258v-268l-24 -346h-207zM711 1227v268h258v-268l-25 -346h-207z" />
<glyph unicode="#" d="M72 389v174h184l63 369h-176v174h207l70 389h180l-70 -389h291l70 389h180l-70 -389h156v-174h-186l-64 -369h178v-174h-208l-68 -389h-180l69 389h-292l-68 -389h-180l69 389h-155zM436 563h291l64 369h-291z" />
<glyph unicode="$" d="M117 401h256q0 -76 47 -126t131 -66v434l-37 10q-176 45 -271.5 162t-95.5 283q0 174 109 285.5t295 127.5v271h127v-269q190 -16 299.5 -125.5t112.5 -283.5h-256q0 152 -156 182v-414l67 -18q178 -45 272.5 -160.5t94.5 -285.5q0 -178 -117.5 -294t-316.5 -132v-269 h-127v271q-201 16 -316.5 126.5t-117.5 290.5zM403 1112q0 -72 38 -125t110 -78v377q-148 -29 -148 -174zM678 207q84 12 131 62t47 128q0 76 -47 131.5t-131 73.5v-395z" />
<glyph unicode="%" d="M-6 0l1057 1495h184l-1057 -1495h-184zM25 1096v133q0 129 85 202.5t214 73.5t213 -73.5t84 -202.5v-133q0 -129 -84 -203t-213 -74t-214 74t-85 203zM207 1096q0 -119 117 -119t116 119v133q0 119 -116 119q-117 0 -117 -119v-133zM608 266v133q0 127 83 202t214 75 t215 -75t84 -202v-133q0 -127 -84 -201.5t-215 -74.5t-214 74.5t-83 201.5zM788 266q0 -116 117 -116t117 116v133q0 119 -117 119t-117 -119v-133z" />
<glyph unicode="&#x26;" d="M88 365v190q0 121 54.5 204t154.5 115q-51 78 -76.5 151t-25.5 146q0 154 107.5 249.5t285.5 95.5q184 0 294.5 -101.5t110.5 -271.5h-237q0 74 -46 118t-122 44q-74 0 -118 -42t-44 -112q0 -49 25.5 -108.5t70.5 -120.5l283 -400l113 215h247l-219 -415l230 -322h-256 l-97 135q-143 -155 -346 -155q-184 0 -286.5 102t-102.5 283zM332 365q0 -84 45 -129.5t121 -45.5q59 0 110 33t88 90l-280 394q-84 -35 -84 -152v-190z" />
<glyph unicode="'" d="M479 1176v319h260v-319l-24 -295h-209z" />
<glyph unicode="(" d="M342 551v371q0 197 79 357.5t224.5 274t347.5 166.5v-252q-182 -45 -287.5 -190t-105.5 -356v-371q0 -205 105.5 -350.5t287.5 -188.5v-258q-311 82 -481 290t-170 507z" />
<glyph unicode=")" d="M236 12q182 43 287.5 188.5t105.5 350.5v371q0 211 -105.5 356t-287.5 190v252q203 -53 348 -166.5t224 -274.5t79 -357v-371q0 -299 -170 -507t-481 -290v258z" />
<glyph unicode="*" d="M61 768l80 217l135 -49q49 -18 102.5 -50t101.5 -67t81 -63l10 8q-12 41 -29.5 99.5t-29.5 122t-12 116.5v147h229v-147q0 -53 -12 -116.5t-29.5 -122t-32.5 -99.5l11 -6q33 27 81 61.5t101 66.5t102 50l137 49l80 -217l-139 -49q-72 -27 -167 -36t-161 -11l-4 -13 q33 -25 79 -62.5t91 -80.5t76 -86l84 -121l-188 -131l-84 121q-31 43 -56.5 101.5t-45 115.5t-31.5 96h-13q-12 -39 -31.5 -96t-45 -115.5t-58.5 -101.5l-84 -121l-188 131l84 121q31 43 76 87t92 81t79 61l-4 13q-43 0 -102 5t-119.5 14t-107.5 28z" />
<glyph unicode="+" d="M121 557v238h366v368h254v-368h367v-238h-367v-369h-254v369h-366z" />
<glyph unicode="," d="M389 -328l109 637h290l-155 -637h-244z" />
<glyph unicode="-" d="M287 557v238h655v-238h-655z" />
<glyph unicode="." d="M422 170q0 88 52 140t140 52t140.5 -52t52.5 -140t-52.5 -139t-140.5 -51t-140 51t-52 139z" />
<glyph unicode="/" d="M123 -225l717 1925h266l-717 -1925h-266z" />
<glyph unicode="0" d="M139 426v643q0 135 58.5 235.5t165 156t251.5 55.5t252 -55.5t165.5 -156t58.5 -235.5v-643q0 -135 -58.5 -235.5t-165.5 -155.5t-252 -55t-251.5 55t-165 155.5t-58.5 235.5zM381 426q0 -102 63.5 -163.5t169.5 -61.5t170 61.5t64 163.5v643q0 102 -62.5 163.5 t-171.5 61.5t-171 -61.5t-62 -163.5v-643zM479 754q0 61 37 98t98 37t98.5 -37t37.5 -98t-37.5 -100.5t-98.5 -39.5t-98 39t-37 101z" />
<glyph unicode="1" d="M170 977v270l344 248h303v-1264h313v-231h-958v231h389v1037z" />
<glyph unicode="2" d="M121 1051q2 143 62.5 246.5t168 161t254.5 57.5q215 0 343 -119t128 -324q0 -119 -60.5 -234.5t-193.5 -250.5l-348 -357h621v-231h-934v233l506 525q78 82 115.5 153.5t37.5 145.5q0 109 -59.5 169t-159.5 60q-104 0 -164.5 -62.5t-60.5 -172.5h-256z" />
<glyph unicode="3" d="M121 410h258q0 -100 58.5 -156.5t164.5 -56.5t163.5 57t57.5 156v112q0 100 -58 156.5t-163 56.5h-176v205l326 336h-564v219h840v-211l-330 -336q178 -25 280.5 -137.5t102.5 -288.5v-112q0 -131 -59 -227.5t-168 -149.5t-254 -53t-252.5 53t-167 149.5t-59.5 227.5z " />
<glyph unicode="4" d="M119 297v371l555 827h282l-591 -893v-80h417v338h258v-860h-258v297h-663z" />
<glyph unicode="5" d="M143 365h256q8 -76 62.5 -119t150.5 -43q106 0 161.5 55t55.5 158v145q0 100 -54 155.5t-163 55.5q-133 0 -184 -100h-250l10 823h842v-231h-600l-4 -435h4q20 72 91 112t179 40q182 2 283.5 -109.5t101.5 -310.5v-145q0 -203 -126 -319.5t-347 -116.5q-207 0 -331.5 103 t-137.5 282z" />
<glyph unicode="6" d="M109 479q0 94 35.5 200.5t105.5 229.5l336 586h278l-413 -702l12 -9q41 61 105.5 96t152.5 35q119 0 209 -56t140 -157.5t50 -238.5q0 -143 -63.5 -253t-177 -170t-265.5 -60t-265 62t-176.5 175t-63.5 262zM360 459q0 -117 69.5 -189.5t184.5 -72.5t184.5 72.5 t69.5 189.5q0 119 -69.5 192.5t-184.5 73.5t-184.5 -73.5t-69.5 -192.5z" />
<glyph unicode="7" d="M133 1026v469h1008v-225l-535 -1270h-280l546 1270h-483v-244h-256z" />
<glyph unicode="8" d="M111 385q0 127 75.5 226.5t204.5 160.5q-119 61 -183.5 149.5t-64.5 200.5q0 113 58.5 202t165 140.5t247.5 51.5t247 -51.5t164 -140.5t58 -202t-63.5 -202t-181.5 -148q135 -66 207.5 -165t72.5 -222t-63.5 -214t-176 -141t-264.5 -50t-264 51t-175.5 142t-63.5 212z M360 412q0 -94 71.5 -154.5t182.5 -60.5t182.5 60t71.5 153q0 74 -52 138t-132 99l-70 29l-71 -31q-80 -33 -131.5 -97.5t-51.5 -135.5zM393 1108q0 -72 48 -130t124 -91l49 -21l48 19q76 33 124 92t48 131q0 84 -60.5 138t-159.5 54q-98 0 -159.5 -54t-61.5 -138z" />
<glyph unicode="9" d="M109 1028q0 143 64.5 254t178 172.5t262.5 61.5q150 0 263.5 -63.5t178 -175.5t64.5 -257q0 -96 -36.5 -203.5t-104.5 -228.5l-324 -588h-284l409 696l-12 9q-41 -63 -106.5 -98.5t-153.5 -35.5q-119 0 -209 58.5t-140 161t-50 237.5zM360 1032q0 -121 70.5 -194.5 t183.5 -73.5t183.5 73.5t70.5 194.5q0 117 -70.5 191.5t-183.5 74.5t-183.5 -74.5t-70.5 -191.5z" />
<glyph unicode=":" d="M424 152q0 76 52 124t138 48t138.5 -48.5t52.5 -123.5q0 -78 -52.5 -125t-138.5 -47t-138 47t-52 125zM424 975q0 78 52 125t138 47t138.5 -47t52.5 -125q0 -76 -52.5 -124t-138.5 -48t-138 48t-52 124z" />
<glyph unicode=";" d="M379 -328l108 637h291l-155 -637h-244zM422 975q0 74 49 123t123 49h41q74 0 123 -49t49 -123t-48 -123t-124 -49h-41q-76 0 -124 49t-48 123z" />
<glyph unicode="&#x3c;" d="M156 547v256l917 432v-236l-594 -274q-41 -18 -81 -31.5t-62 -17.5q23 -4 63.5 -16.5t79.5 -30.5l594 -275v-239z" />
<glyph unicode="=" d="M168 307v236h893v-236h-893zM168 809v235h893v-235h-893z" />
<glyph unicode="&#x3e;" d="M156 115v235l594 275q41 18 80.5 30.5t62.5 18.5q-23 4 -64 15t-79 30l-594 276v240l917 -432v-256z" />
<glyph unicode="?" d="M236 1255v240h292q152 0 262.5 -54.5t172 -152.5t61.5 -233q0 -125 -52 -220.5t-144.5 -149.5t-215.5 -56v-185h-227l-4 410h162q102 0 163.5 55.5t61.5 145.5q0 92 -61.5 146t-165.5 54h-305zM328 125q0 59 39 97t102 38h61q63 0 101.5 -38t38.5 -97t-39 -97t-103 -38 h-59q-63 0 -102 38t-39 97z" />
<glyph unicode="@" d="M68 227v695q0 184 69.5 317t198.5 205t309 72q164 0 281.5 -62.5t181 -174.5t63.5 -259v-887h-206v146h-7q-8 -76 -68.5 -121t-152.5 -45q-129 0 -196.5 86t-67.5 243v234q0 158 67.5 244t196.5 86q94 0 153.5 -45.5t67.5 -120.5h7l-7 159v21q0 150 -81.5 230.5 t-239.5 80.5q-168 0 -262 -107.5t-94 -301.5v-695q0 -190 101 -294.5t284 -104.5h143v-195h-143q-184 0 -318.5 72t-207 205t-72.5 317zM680 442q0 -92 34.5 -133t104.5 -41q74 0 106.5 43t32.5 140v225q0 174 -139 174t-139 -174v-234z" />
<glyph unicode="A" d="M72 0l377 1495h329l379 -1495h-262l-82 362h-397l-82 -362h-262zM463 571h303l-90 402q-23 100 -39 181t-23 118q-6 -37 -22.5 -118t-38.5 -179z" />
<glyph unicode="B" d="M158 0v1495h458q215 0 343 -104.5t128 -280.5q0 -123 -64.5 -208t-174.5 -111q125 -27 199.5 -124.5t74.5 -240.5q0 -129 -60.5 -225.5t-168 -148.5t-254.5 -52h-481zM408 213h215q113 0 177 60.5t64 164.5t-64.5 169t-176.5 65h-215v-459zM408 879h204q100 0 159.5 54 t59.5 148q0 92 -58 146.5t-161 54.5h-204v-403z" />
<glyph unicode="C" d="M147 422v651q0 135 58.5 234.5t165 154t252.5 54.5q143 0 249.5 -54.5t166 -154t59.5 -234.5h-258q0 104 -56.5 160.5t-160.5 56.5t-162 -55t-58 -160v-653q0 -104 57.5 -160.5t162.5 -56.5q104 0 160.5 56t56.5 161h258q0 -135 -59.5 -234.5t-166 -153.5t-249.5 -54 q-145 0 -252 54t-165.5 153.5t-58.5 234.5z" />
<glyph unicode="D" d="M154 0v1495h444q152 0 263.5 -58.5t173 -163t61.5 -245.5v-559q0 -141 -61.5 -246.5t-173 -164t-263.5 -58.5h-444zM410 229h188q111 0 176.5 64.5t65.5 175.5v559q0 109 -65.5 173.5t-176.5 64.5h-188v-1037z" />
<glyph unicode="E" d="M180 0v1495h897v-225h-645v-389h574v-217h-574v-439h645v-225h-897z" />
<glyph unicode="F" d="M164 0v1495h930v-238h-678v-399h624v-237h-620v-621h-256z" />
<glyph unicode="G" d="M147 422v651q0 135 58.5 234.5t165 154t252.5 54.5q143 0 249.5 -54.5t166 -154t59.5 -234.5h-258q0 104 -56.5 160.5t-160.5 56.5t-162 -55t-58 -160v-653q0 -104 57.5 -161.5t162.5 -57.5q104 0 160.5 57t56.5 162v151h-254v222h512v-373q0 -135 -59.5 -234.5 t-166 -153.5t-249.5 -54q-145 0 -252 54t-165.5 153.5t-58.5 234.5z" />
<glyph unicode="H" d="M158 0v1495h256v-600h401v600h256v-1495h-256v664h-401v-664h-256z" />
<glyph unicode="I" d="M184 0v231h301v1033h-301v231h860v-231h-301v-1033h301v-231h-860z" />
<glyph unicode="J" d="M61 442h256q0 -111 62.5 -175t173.5 -64q109 0 172 63.5t63 173.5v824h-419v231h675v-1055q0 -213 -132 -336.5t-359 -123.5t-359.5 124.5t-132.5 337.5z" />
<glyph unicode="K" d="M156 0v1495h256v-610h176l284 610h277l-336 -713l352 -782h-284l-295 662h-174v-662h-256z" />
<glyph unicode="L" d="M248 0v1495h256v-1264h635v-231h-891z" />
<glyph unicode="M" d="M115 0v1495h303l143 -475q23 -72 36 -130.5t17 -86.5q4 29 17.5 87t36.5 130l141 475h305v-1495h-240v629q0 207 16.5 384t37.5 337l-203 -707h-223l-205 692q20 -143 38.5 -314t18.5 -392v-629h-239z" />
<glyph unicode="N" d="M147 0v1495h314l416 -1208q-6 66 -12.5 154.5t-11.5 181t-5 163.5v709h233v-1495h-313l-412 1208q4 -59 10.5 -143t10.5 -172t4 -162v-731h-234z" />
<glyph unicode="O" d="M147 422v651q0 203 126 323t341 120t341 -120t126 -321v-653q0 -203 -126 -322.5t-341 -119.5t-341 119.5t-126 322.5zM403 422q0 -104 53.5 -160.5t157.5 -56.5t157.5 56t53.5 161v651q0 104 -53 160.5t-158 56.5q-104 0 -157.5 -56t-53.5 -161v-651z" />
<glyph unicode="P" d="M158 0v1495h497q150 0 261.5 -57.5t173 -160.5t61.5 -243q0 -139 -61.5 -242.5t-173 -161t-261.5 -57.5h-241v-573h-256zM414 799h241q109 0 172.5 65.5t63.5 169.5t-63.5 170t-172.5 66h-241v-471z" />
<glyph unicode="Q" d="M139 426v643q0 135 58.5 235.5t166 156t250.5 55.5t250 -55.5t166.5 -156t59.5 -235.5v-643q0 -135 -58.5 -236.5t-165.5 -154.5l248 -404h-276l-211 349h-13q-143 0 -249.5 55t-166 155.5t-59.5 235.5zM395 426q0 -104 56.5 -162.5t162.5 -58.5t163 58.5t57 162.5v643 q0 104 -58.5 163.5t-161.5 59.5q-102 0 -160.5 -59t-58.5 -164v-643z" />
<glyph unicode="R" d="M156 0v1495h473q150 0 259 -55.5t170.5 -154.5t61.5 -234q0 -150 -74.5 -261.5t-201.5 -158.5l297 -631h-287l-260 594h-182v-594h-256zM412 819h217q109 0 170 59.5t61 163.5t-62.5 166t-168.5 62h-217v-451z" />
<glyph unicode="S" d="M117 403h256q0 -92 67.5 -146t180.5 -54q111 0 173 53t62 145q0 76 -43 130.5t-119 74.5l-180 49q-174 47 -270.5 163t-96.5 280q0 190 127 304t342 114q217 0 345.5 -112t128.5 -300h-256q0 86 -58.5 137t-161.5 51q-100 0 -156.5 -50t-56.5 -140q0 -70 42 -121t122 -72 l183 -51q174 -47 269 -162.5t95 -285.5q0 -129 -61.5 -226.5t-172 -150.5t-260.5 -53q-154 0 -265 52t-173.5 147t-62.5 224z" />
<glyph unicode="T" d="M94 1264v231h1041v-231h-392v-1264h-258v1264h-391z" />
<glyph unicode="U" d="M147 426v1069h259v-1067q0 -106 53 -165.5t155 -59.5q100 0 154.5 59.5t54.5 165.5v1067h258v-1069q0 -207 -123 -326.5t-344 -119.5q-219 0 -343 119.5t-124 326.5z" />
<glyph unicode="V" d="M72 1495h264l227 -975q18 -72 33.5 -154.5t24.5 -132.5q8 49 23 132.5t34 156.5l219 973h260l-377 -1495h-331z" />
<glyph unicode="W" d="M33 1495h221l90 -1044q4 -53 9 -136.5t7 -140.5q4 57 12.5 140t14.5 137l123 1044h215l115 -1044q6 -53 15 -136.5t17 -140.5q2 57 6.5 140t10.5 137l88 1044h219l-162 -1495h-282l-111 1049q-6 59 -13 144t-12 140q-4 -55 -11 -140t-13 -144l-121 -1049h-285z" />
<glyph unicode="X" d="M57 0l414 766l-389 729h287l188 -375q20 -41 36.5 -78.5t24.5 -58.5q6 20 22.5 58t37.5 79l190 375h279l-389 -723l413 -772h-286l-211 414q-20 39 -38 78.5t-26 62.5q-8 -23 -24.5 -61.5t-36.5 -79.5l-213 -414h-279z" />
<glyph unicode="Y" d="M47 1495h268l234 -518q27 -61 45 -120.5t24 -92.5q8 33 26 92t44 121l227 518h267l-439 -952v-543h-258v543z" />
<glyph unicode="Z" d="M162 0v238l600 1026h-586v231h868v-238l-602 -1026h625v-231h-905z" />
<glyph unicode="[" d="M379 -225v1925h573v-236h-317v-1454h317v-235h-573z" />
<glyph unicode="\" d="M123 1700h266l715 -1925h-266z" />
<glyph unicode="]" d="M276 10h318v1454h-318v236h574v-1925h-574v235z" />
<glyph unicode="^" d="M139 696l355 799h245l351 -799h-240l-188 471q-16 43 -27.5 83t-16.5 61q-6 -20 -18 -60.5t-29 -83.5l-194 -471h-238z" />
<glyph unicode="_" d="M123 -51h983v-232h-983v232z" />
<glyph unicode="`" d="M293 1608h283l219 -287h-264z" />
<glyph unicode="a" d="M115 319q0 166 114.5 257.5t319.5 91.5h270v94q0 82 -54 127t-151 45q-90 0 -145 -39t-59 -96h-244q8 158 134 253t325 95q209 0 329.5 -102.5t120.5 -280.5v-764h-248v190h-4q-23 -98 -111 -154t-223 -56q-174 0 -274 91t-100 248zM371 340q0 -80 54 -125t148 -45 q109 0 177.5 54.5t68.5 144.5v135h-264q-86 0 -135 -44t-49 -120z" />
<glyph unicode="b" d="M158 0v1495h256v-315l-8 -269q18 111 99 173.5t206 62.5q170 0 272 -117t102 -315v-305q0 -199 -102 -314.5t-272 -115.5q-123 0 -203 59t-100 168v-207h-250zM414 422q0 -104 54.5 -162.5t152.5 -58.5t153 57t55 164v283q0 106 -55 163.5t-153 57.5t-152.5 -58.5 t-54.5 -162.5v-283z" />
<glyph unicode="c" d="M143 422v283q0 135 59.5 234t167 153.5t251.5 54.5q213 0 339.5 -109.5t133.5 -298.5h-250q-6 88 -66.5 136.5t-156.5 48.5q-102 0 -162 -56.5t-60 -160.5v-285q0 -104 59.5 -161.5t162.5 -57.5q98 0 157.5 48t65.5 136h250q-6 -188 -133 -297.5t-340 -109.5 q-143 0 -251 54t-167.5 153.5t-59.5 234.5z" />
<glyph unicode="d" d="M143 410v305q0 199 101.5 315.5t267.5 116.5q117 0 196.5 -58.5t110.5 -164.5h4l-8 256v315h256v-1495h-250v203h-2q-31 -106 -109.5 -164.5t-197.5 -58.5q-164 0 -266.5 116.5t-102.5 313.5zM399 422q0 -106 55.5 -163.5t153.5 -57.5t152.5 59t54.5 168v270 q0 109 -54 168.5t-153 59.5q-98 0 -153.5 -57.5t-55.5 -163.5v-283z" />
<glyph unicode="e" d="M143 422v283q0 133 58.5 232t165 154.5t249.5 55.5q141 0 247 -55.5t164 -154.5t58 -232v-203h-694v-80q0 -240 227 -240q176 0 207 117h252q-29 -145 -155 -232t-306 -87q-143 0 -249.5 55t-165 154.5t-58.5 232.5zM391 662l447 2v43q0 117 -55.5 179t-166.5 62 q-113 0 -169 -63t-56 -180v-43z" />
<glyph unicode="f" d="M111 770v231h309v170q0 147 98 235.5t260 88.5h330v-225h-324q-49 0 -78.5 -28t-29.5 -75v-166h432v-231h-432v-770h-256v770h-309z" />
<glyph unicode="g" d="M147 498v219q0 197 101.5 313.5t273.5 116.5q123 0 201 -62.5t94 -173.5h4l-6 215h256v-1126q0 -172 -112.5 -270.5t-309.5 -98.5h-338v213h334q172 0 172 162v84l4 211h-4q-16 -111 -94 -173t-201 -62q-172 0 -273.5 116.5t-101.5 315.5zM403 508q0 -106 53.5 -163.5 t151.5 -57.5t152.5 58t54.5 163v197q0 104 -54 162.5t-153 58.5q-98 0 -151.5 -57.5t-53.5 -163.5v-197z" />
<glyph unicode="h" d="M158 0v1495h256v-369l-6 -215h4q18 111 96 173.5t203 62.5q166 0 265 -110.5t99 -297.5v-739h-256v713q0 102 -54 157.5t-147 55.5q-96 0 -150 -57.5t-54 -163.5v-705h-256z" />
<glyph unicode="i" d="M156 0v231h385v664h-344v231h600v-895h346v-231h-987zM484 1462q0 68 45 108t123 40t123 -40t45 -108t-45 -107.5t-123 -39.5t-123 40t-45 107z" />
<glyph unicode="j" d="M131 -137h332q98 0 155.5 58.5t57.5 158.5v815h-504v231h760v-1052q0 -205 -123 -324t-332 -119h-346v232zM633 1462q0 68 45 108t123 40t123 -40t45 -108t-45 -107.5t-123 -39.5t-123 40t-45 107z" />
<glyph unicode="k" d="M164 0v1495h256v-811h180l274 442h285l-340 -544l346 -582h-291l-274 467h-180v-467h-256z" />
<glyph unicode="l" d="M55 1264v231h627v-1122q0 -66 36 -104t97 -38h330v-231h-348q-166 0 -268.5 100.5t-102.5 264.5v899h-371z" />
<glyph unicode="m" d="M100 0v1126h209v-151h10q10 78 61.5 125t127.5 47q70 0 121 -47t69 -125h7q12 78 64 125t130 47q100 0 164.5 -81t64.5 -208v-858h-221v840q0 118 -96 118h-2q-98 0 -98 -118v-840h-193v840q0 118 -96 118h-2q-96 0 -96 -118v-840h-224z" />
<glyph unicode="n" d="M158 0v1126h250v-215h4q18 111 96 173.5t203 62.5q166 0 265 -110.5t99 -297.5v-739h-256v713q0 102 -54 157.5t-147 55.5q-96 0 -150 -57.5t-54 -163.5v-705h-256z" />
<glyph unicode="o" d="M143 424v278q0 203 127 323t344 120t344 -120t127 -320v-281q0 -203 -127 -322.5t-344 -119.5t-344 119.5t-127 322.5zM399 424q0 -106 56.5 -162.5t158.5 -56.5t158.5 56t56.5 163v278q0 106 -56 163t-159 57q-102 0 -158.5 -56.5t-56.5 -163.5v-278z" />
<glyph unicode="p" d="M158 -369v1495h250v-202h4q31 106 109.5 164.5t195.5 58.5q166 0 267 -117t101 -313v-305q0 -199 -101 -315.5t-267 -116.5q-115 0 -195 58t-110 165h-4l6 -256v-316h-256zM414 428q0 -109 55.5 -168t153.5 -59t152 57t54 164v283q0 106 -54 163.5t-152 57.5 t-153.5 -59.5t-55.5 -168.5v-270z" />
<glyph unicode="q" d="M147 412v305q0 197 100.5 313.5t264.5 116.5q119 0 197.5 -58.5t109.5 -164.5h2v202h250v-1495h-256v316l8 256h-4q-31 -106 -110.5 -164.5t-196.5 -58.5q-166 0 -265.5 116.5t-99.5 315.5zM403 422q0 -106 53.5 -163.5t151.5 -57.5t152.5 59t54.5 168v270 q0 109 -54 168.5t-153 59.5q-98 0 -151.5 -57.5t-53.5 -163.5v-283z" />
<glyph unicode="r" d="M190 0v1126h250v-215h6q16 111 98.5 173.5t209.5 62.5q174 0 278.5 -113.5t104.5 -310.5v-92h-269v74q0 104 -54 162.5t-157 58.5q-211 0 -211 -236v-690h-256z" />
<glyph unicode="s" d="M137 309h258q0 -59 48.5 -91t129.5 -32h89q96 0 143 35t47 96q0 117 -174 144l-158 20q-354 51 -354 338q0 160 107.5 243t312.5 83h78q190 0 305.5 -85t115.5 -224h-258q0 49 -43 76.5t-122 27.5h-78q-168 0 -168 -121q0 -104 149 -127l160 -24q190 -27 283.5 -111 t93.5 -233q0 -162 -111.5 -252t-328.5 -90h-91q-129 0 -227 39.5t-152.5 113.5t-54.5 174z" />
<glyph unicode="t" d="M88 895v231h305v318h258v-318h432v-231h-432v-551q0 -49 28 -81t77 -32h307v-231h-326q-158 0 -251 91t-93 247v557h-305z" />
<glyph unicode="u" d="M154 426v700h256v-698q0 -109 53 -167t151 -58q96 0 150.5 58t54.5 167v698h256v-700q0 -207 -125 -326.5t-336 -119.5q-215 0 -337.5 119.5t-122.5 326.5z" />
<glyph unicode="v" d="M66 1126h266l227 -684q20 -61 35.5 -126.5t23.5 -104.5q10 39 24.5 104.5t33.5 124.5l223 686h264l-385 -1126h-325z" />
<glyph unicode="w" d="M41 1126h205l94 -690q8 -59 13 -131t9 -119h11q4 47 12 118t16 132l109 690h213l104 -690q8 -59 16.5 -132t12.5 -120h10q4 49 10.5 120t14.5 132l98 690h199l-176 -1126h-264l-99 694q-8 57 -17 128t-14 116h-8q-6 -45 -14 -115.5t-16 -128.5l-103 -694h-264z" />
<glyph unicode="x" d="M74 0l393 582l-367 544h289l174 -276q16 -25 30.5 -55.5t20.5 -49.5q8 18 22.5 49t29.5 56l176 276h288l-366 -544l391 -582h-291l-194 309q-16 25 -31.5 56.5t-24.5 50.5q-8 -18 -22 -50t-31 -57l-199 -309h-288z" />
<glyph unicode="y" d="M66 1126h278l221 -575q18 -47 34.5 -113.5t25.5 -109.5q10 43 27.5 109.5t33.5 113.5l211 575h266l-555 -1495h-268l160 430z" />
<glyph unicode="z" d="M160 0v231l588 670h-570v225h869v-231l-594 -670h616v-225h-909z" />
<glyph unicode="{" d="M141 618v236h267q90 0 126.5 43t28.5 125l-31 321q-16 162 88.5 259.5t284.5 97.5h142v-236h-105q-76 0 -117 -37.5t-37 -107.5l31 -320q10 -104 -50 -171.5t-169 -86.5q109 -20 169 -91.5t50 -176.5l-31 -319q-6 -68 36 -106t118 -38h105v-237h-142q-180 0 -284.5 99 t-88.5 265l31 312q8 84 -28.5 126.5t-126.5 42.5h-267z" />
<glyph unicode="|" d="M485 -225v1925h258v-1925h-258z" />
<glyph unicode="}" d="M182 10h105q76 0 117.5 38t35.5 106l-30 319q-10 104 50 177t169 91q-111 18 -170.5 86t-48.5 172l30 320q4 70 -37 107.5t-116 37.5h-105v236h142q180 0 284.5 -97.5t87.5 -259.5l-30 -321q-8 -82 28.5 -125t126.5 -43h266v-236h-266q-90 0 -127 -43t-28 -126l30 -312 q16 -166 -88 -265t-284 -99h-142v237z" />
<glyph unicode="~" d="M106 522v162q0 125 82 202t215 77q84 0 139.5 -29t91.5 -70t64.5 -83t57 -69.5t71.5 -27.5q78 0 78 88v150h217v-162q0 -125 -80.5 -202t-216.5 -77q-84 0 -139 29t-91 70t-64.5 83t-57.5 69.5t-72 27.5q-78 0 -77 -88v-150h-218z" />
<glyph unicode="&#xa0;" />
<glyph unicode="&#xa1;" d="M442 1006q0 59 40 95t108 36h51q66 0 105.5 -36t39.5 -97t-39.5 -98.5t-105.5 -37.5h-53q-66 0 -106 37t-40 101zM475 -72l45 723h189l45 -723v-297h-279v297z" />
<glyph unicode="&#xa2;" d="M143 422v283q0 188 114 305.5t304 134.5v268h129v-270q182 -16 289.5 -123t114.5 -281h-250q-6 70 -46 116t-108 60v-704q68 14 108 59t46 117h250q-6 -174 -114 -280.5t-290 -122.5v-271h-129v269q-190 16 -304 133.5t-114 306.5zM399 422q0 -90 43 -144.5t119 -68.5 v709q-76 -14 -119 -68.5t-43 -142.5v-285z" />
<glyph unicode="&#xa3;" d="M137 1118q0 115 58.5 205t166 141.5t252.5 51.5q211 0 338 -113t135 -301h-260q-4 82 -62 136t-157 54q-100 0 -157.5 -52t-57.5 -136q0 -61 26.5 -105.5t62.5 -86.5t69 -99h340v-213h-281v-37q0 -90 -43 -156.5t-106.5 -109.5t-122.5 -61h758v-236h-942v276 q49 29 100 72t87 94.5t36 102.5q0 29 -4 55h-232v213h138l-66 86t-54.5 95.5t-21.5 123.5z" />
<glyph unicode="&#xa4;" d="M82 1163l137 140l180 -181q98 55 217 56q125 0 224 -60l172 172l135 -135l-172 -172q59 -100 59 -219q0 -61 -16.5 -117.5t-44.5 -103.5l178 -178l-139 -138l-181 179q-94 -55 -215 -56q-123 0 -217 56l-176 -177l-137 138l172 172q-63 100 -63 225t63 221zM377 764 q0 -102 68.5 -172t170.5 -70q100 0 168 70t68 172t-67.5 172t-168.5 70q-102 0 -170.5 -70t-68.5 -172z" />
<glyph unicode="&#xa5;" d="M47 1495h268l234 -518q27 -61 45 -120.5t24 -92.5q8 33 26 92t44 121l227 518h267l-353 -764h277v-190h-363v-129h363v-191h-363v-221h-258v221h-362v191h362v129h-362v190h276z" />
<glyph unicode="&#xa6;" d="M485 -225v778h258v-778h-258zM485 922v778h258v-778h-258z" />
<glyph unicode="&#xa7;" d="M119 2h260q16 -51 71.5 -84t131.5 -33h61q102 0 158.5 42t56.5 110q0 119 -182 158l-189 41q-162 33 -255 120.5t-93 210.5q0 119 75 194t204 87v14q-59 6 -124 42t-108 101.5t-43 163.5q0 160 117 253.5t326 93.5h61q188 0 307 -81t140 -225h-260q-12 43 -61.5 73 t-125.5 30h-61q-94 0 -143.5 -38t-49.5 -101q0 -115 164 -150l201 -43q166 -35 258 -127t92 -215q0 -119 -76 -194.5t-207 -82.5v-14q61 -6 127 -41t112 -102.5t46 -169.5q0 -162 -123 -257t-344 -95h-61q-195 0 -318 86t-145 233zM389 618q0 -72 38 -124t99 -62l131 -26 q88 -18 143.5 38t55.5 156q0 68 -41 119t-108 65l-129 27q-84 18 -136.5 -38t-52.5 -155z" />
<glyph unicode="&#xa8;" d="M223 1462q0 68 41 108t111 40q68 0 108.5 -40t40.5 -108t-40.5 -107.5t-108.5 -39.5q-70 0 -111 40t-41 107zM705 1462q0 68 41 108t108 40q70 0 111 -40t41 -108t-41 -107.5t-111 -39.5q-68 0 -108.5 40t-40.5 107z" />
<glyph unicode="&#xa9;" d="M92 717v307q0 147 65.5 258t183.5 172.5t273 61.5q158 0 275 -61.5t182.5 -172.5t65.5 -258v-307q0 -147 -65.5 -258t-182.5 -172.5t-275 -61.5q-156 0 -273.5 61.5t-183 172t-65.5 258.5zM205 717q0 -117 51 -205t143 -136t215 -48t215.5 48t143.5 136t51 205v307 q0 117 -51 204t-143.5 136t-215.5 49t-215 -49t-143 -136t-51 -204v-307zM356 750v241q0 113 74 180.5t195 67.5q119 0 192.5 -67.5t73.5 -180.5h-158q0 51 -29.5 81t-78.5 30t-80 -30t-31 -81v-241q0 -51 30.5 -81t80.5 -30q49 0 78.5 29.5t29.5 81.5h158 q0 -113 -73.5 -180.5t-192.5 -67.5q-121 0 -195 67.5t-74 180.5z" />
<glyph unicode="&#xaa;" d="M346 1100q0 80 61.5 128t165.5 48h160v55q0 37 -29.5 57.5t-78.5 20.5q-45 0 -75 -17.5t-34 -45.5h-139q14 78 80.5 124t167.5 46q113 0 180 -50.5t67 -134.5v-399h-133v112h-6q-23 -57 -70.5 -89.5t-113.5 -32.5q-90 0 -146.5 49t-56.5 129zM485 1102q0 -37 29 -59.5 t74 -22.5q66 0 105.5 31.5t39.5 85.5v45h-160q-41 0 -64.5 -20.5t-23.5 -59.5z" />
<glyph unicode="&#xab;" d="M43 573l369 492h276l-377 -487l377 -496h-278zM541 573l368 492h277l-377 -487l377 -496h-279z" />
<glyph unicode="&#xac;" d="M143 655v236h942v-508h-251v272h-691z" />
<glyph unicode="&#xad;" d="M287 557v238h655v-238h-655z" />
<glyph unicode="&#xae;" d="M92 717v307q0 147 65.5 258t183.5 172.5t273 61.5q158 0 275 -61.5t182.5 -172.5t65.5 -258v-307q0 -147 -65.5 -258t-182.5 -172.5t-275 -61.5q-156 0 -273.5 61.5t-183 172t-65.5 258.5zM205 717q0 -117 51 -205t143.5 -136t214.5 -48q123 0 215.5 48t143.5 136t51 205 v307q0 117 -51 204t-143.5 136t-215.5 49t-215 -49t-143 -136t-51 -204v-307zM377 512v717h246q115 0 183 -60.5t68 -160.5q0 -66 -31.5 -115t-86.5 -74l131 -307h-156l-113 281h-94v-281h-147zM524 913h99q47 0 74.5 27t27.5 74t-27.5 73.5t-74.5 26.5h-99v-201z" />
<glyph unicode="&#xaf;" d="M262 1354v196h705v-196h-705z" />
<glyph unicode="&#xb0;" d="M307 1219q0 133 85 215t222 82q139 0 223.5 -82t84.5 -215t-84.5 -215t-223.5 -82q-137 0 -222 81.5t-85 215.5zM449 1219q0 -78 44.5 -127.5t120.5 -49.5q74 0 120 49.5t46 127.5q0 80 -46 128t-120 48q-76 0 -120.5 -48.5t-44.5 -127.5z" />
<glyph unicode="&#xb1;" d="M127 563v236h367v368h254v-368h366v-236h-366v-370h344v-193h-955v193h357v370h-367z" />
<glyph unicode="&#xb2;" d="M299 1423q2 135 88 216t227 81q145 0 231.5 -79.5t86.5 -215.5q0 -76 -47 -151.5t-127 -128.5l-240 -162h430v-154h-624v191l346 244q41 27 64.5 70.5t23.5 88.5q0 68 -39 107t-105 39q-63 0 -103 -39t-40 -107h-172z" />
<glyph unicode="&#xb3;" d="M260 1102h172q0 -68 40 -104.5t110 -36.5q68 0 105.5 36.5t37.5 106.5q0 68 -38 106.5t-103 38.5h-62v135l174 162h-372v154h520v-172l-168 -158q102 -16 163.5 -87t61.5 -179q0 -137 -88 -216t-231 -79q-145 0 -233.5 79t-88.5 214z" />
<glyph unicode="&#xb4;" d="M438 1321l218 287h274l-233 -287h-259z" />
<glyph unicode="&#xb5;" d="M158 -369v1495h256v-704q0 -104 53 -162.5t149 -58.5t150.5 58t54.5 163v704h256v-1126h-254l6 215h-4q-10 -111 -62 -173t-147 -62q-96 0 -146 62t-58 173h-4l6 -268v-316h-256z" />
<glyph unicode="&#xb6;" d="M115 983v164q0 158 107.5 253t281.5 95h201v-1864h-201v1004q-174 0 -281.5 96t-107.5 252zM864 -369v1864h201v-1864h-201z" />
<glyph unicode="&#xb7;" d="M422 713q0 88 52 140t140 52t140.5 -52t52.5 -140t-52.5 -139t-140.5 -51t-140 51t-52 139z" />
<glyph unicode="&#xb8;" d="M402 -311h155q49 0 79 23.5t30 49.5q0 43 -60.5 70t-169.5 27l72 182h137l-41 -117q57 -6 121 -27.5t108 -60.5t44 -98q0 -72 -75 -126t-196 -54h-204v131z" />
<glyph unicode="&#xb9;" d="M305 829v156h270v561l-251 -180v184l200 150h226v-715h211v-156h-656z" />
<glyph unicode="&#xba;" d="M354 1151v127q0 104 72 168.5t188 64.5q117 0 188.5 -64.5t71.5 -168.5v-127q0 -102 -71.5 -167.5t-188.5 -65.5t-188.5 65.5t-71.5 167.5zM494 1151q0 -51 32.5 -84t87.5 -33t88 33t33 84v127q0 51 -32.5 83t-88.5 32q-55 0 -87.5 -32t-32.5 -83v-127z" />
<glyph unicode="&#xbb;" d="M43 1065h279l366 -492l-369 -491h-274l371 491zM541 1065h278l367 -492l-369 -491h-274l370 491z" />
<glyph unicode="&#xbc;" d="M70 827v134h237v425q-12 -16 -32.5 -40.5t-43.5 -42.5l-125 -103v178l150 115h209v-532h182l271 534h151l-758 -1495h-151l420 827h-510zM612 131v188l258 347h177l-277 -375v-33h188v166h158v-424h-158v131h-346z" />
<glyph unicode="&#xbd;" d="M70 829v134h237v426q-12 -18 -32.5 -42t-43.5 -42l-125 -103v176l150 117h209v-532h182l271 532h151l-758 -1495h-151l422 829h-512zM639 0v162l274 153q102 59 103 131q0 47 -29 75t-76 28q-51 0 -81.5 -28.5t-30.5 -78.5h-160q2 104 78 169t194 65q119 0 192 -60.5 t73 -158.5q0 -133 -191 -236l-147 -82v-20q23 4 61.5 9t73.5 5h213v-133h-547z" />
<glyph unicode="&#xbe;" d="M43 1034h158q0 -39 31.5 -63.5t84.5 -24.5q49 0 80 25.5t31 68.5t-29.5 69t-79.5 26h-61v127l141 112h-307v121h463v-121l-164 -129q90 -10 143.5 -65.5t53.5 -139.5q0 -100 -75 -160.5t-196 -60.5q-125 0 -199.5 59.5t-74.5 155.5zM160 0l758 1495h151l-758 -1495h-151z M612 131v188l258 347h177l-277 -375v-33h188v166h158v-424h-158v131h-346z" />
<glyph unicode="&#xbf;" d="M188 82q0 123 52.5 215t144.5 145.5t215 55.5v184h227l7 -410h-164q-104 0 -164 -50t-60 -140t60.5 -140.5t165.5 -50.5h305v-239h-293q-150 0 -261.5 53t-173 149.5t-61.5 227.5zM549 1004q0 61 40 97t105 36h51q66 0 106 -36t40 -97t-40 -99.5t-106 -38.5h-51 q-66 0 -105.5 38t-39.5 100z" />
<glyph unicode="&#xc0;" d="M72 0l377 1495h329l379 -1495h-262l-82 362h-397l-82 -362h-262zM272 1946h283l219 -287h-264zM463 571h303l-90 402q-23 100 -39 181t-23 118q-6 -37 -22.5 -118t-38.5 -179z" />
<glyph unicode="&#xc1;" d="M72 0l377 1495h329l379 -1495h-262l-82 362h-397l-82 -362h-262zM458 1659l218 287h274l-233 -287h-259zM463 571h303l-90 402q-23 100 -39 181t-23 118q-6 -37 -22.5 -118t-38.5 -179z" />
<glyph unicode="&#xc2;" d="M72 0l377 1495h329l379 -1495h-262l-82 362h-397l-82 -362h-262zM215 1659l281 287h237l281 -287h-246l-155 149l-150 -149h-248zM463 571h303l-90 402q-23 100 -39 181t-23 118q-6 -37 -22.5 -118t-38.5 -179z" />
<glyph unicode="&#xc3;" d="M72 0l377 1495h329l379 -1495h-262l-82 362h-397l-82 -362h-262zM262 1661v68q0 100 57.5 162.5t151.5 62.5q63 0 103.5 -20.5t67 -46t50 -45t56.5 -19.5q61 0 61 63v58h158v-68q0 -100 -57.5 -162.5t-151.5 -62.5q-63 0 -103 20.5t-67 46t-50.5 45t-56.5 19.5 q-61 0 -61 -68v-53h-158zM463 571h303l-90 402q-23 100 -39 181t-23 118q-6 -37 -22.5 -118t-38.5 -179z" />
<glyph unicode="&#xc4;" d="M72 0l377 1495h329l379 -1495h-262l-82 362h-397l-82 -362h-262zM223 1802q0 70 41 110t111 40q68 0 108.5 -40t40.5 -110q0 -68 -40.5 -107.5t-108.5 -39.5q-70 0 -111 40t-41 107zM463 571h303l-90 402q-23 100 -39 181t-23 118q-6 -37 -22.5 -118t-38.5 -179z M705 1802q0 70 41 110t108 40q70 0 111 -40t41 -110q0 -68 -41 -107.5t-111 -39.5q-68 0 -108.5 40t-40.5 107z" />
<glyph unicode="&#xc5;" d="M72 0l377 1495h329l379 -1495h-262l-82 362h-397l-82 -362h-262zM344 1802q0 113 75 181.5t196 68.5t195.5 -68.5t74.5 -181.5t-74.5 -181.5t-195.5 -68.5t-196 69t-75 181zM463 571h303l-90 402q-23 100 -39 181t-23 118q-6 -37 -22.5 -118t-38.5 -179zM492 1802 q0 -53 34 -87t89 -34t88.5 34t33.5 87t-33.5 87t-88.5 34t-89 -34t-34 -87z" />
<glyph unicode="&#xc6;" d="M25 0l288 1495h867v-219h-353v-397h301v-226h-301v-432h353v-221h-574v371h-266l-66 -371h-249zM371 559h235v717h-106z" />
<glyph unicode="&#xc7;" d="M147 422v651q0 135 58.5 234.5t165 154t252.5 54.5q143 0 249.5 -54.5t166 -154t59.5 -234.5h-258q0 104 -56.5 160.5t-160.5 56.5t-162 -55t-58 -160v-653q0 -104 57.5 -160.5t162.5 -56.5q104 0 160.5 56t56.5 161h258q0 -199 -125 -318.5t-334 -123.5l-18 -56 q57 -6 120.5 -27.5t106.5 -60.5t43 -98q0 -72 -74 -126t-194 -54h-205v131h155q49 0 79 23.5t30 49.5q0 43 -60.5 70t-168.5 27l51 131q-166 31 -261.5 144.5t-95.5 287.5z" />
<glyph unicode="&#xc8;" d="M180 0v1495h897v-225h-645v-389h574v-217h-574v-439h645v-225h-897zM313 1946h283l219 -287h-264z" />
<glyph unicode="&#xc9;" d="M180 0v1495h897v-225h-645v-389h574v-217h-574v-439h645v-225h-897zM499 1659l218 287h274l-233 -287h-259z" />
<glyph unicode="&#xca;" d="M180 0v1495h897v-225h-645v-389h574v-217h-574v-439h645v-225h-897zM256 1659l281 287h237l281 -287h-246l-155 149l-150 -149h-248z" />
<glyph unicode="&#xcb;" d="M180 0v1495h897v-225h-645v-389h574v-217h-574v-439h645v-225h-897zM264 1802q0 70 41 110t111 40q68 0 108.5 -40t40.5 -110q0 -68 -40.5 -107.5t-108.5 -39.5q-70 0 -111 40t-41 107zM746 1802q0 70 41 110t108 40q70 0 111 -40t41 -110q0 -68 -41 -107.5t-111 -39.5 q-68 0 -108.5 40t-40.5 107z" />
<glyph unicode="&#xcc;" d="M184 0v231h301v1033h-301v231h860v-231h-301v-1033h301v-231h-860zM272 1946h283l219 -287h-264z" />
<glyph unicode="&#xcd;" d="M184 0v231h301v1033h-301v231h860v-231h-301v-1033h301v-231h-860zM458 1659l218 287h274l-233 -287h-259z" />
<glyph unicode="&#xce;" d="M184 0v231h301v1033h-301v231h860v-231h-301v-1033h301v-231h-860zM215 1659l281 287h237l281 -287h-246l-155 149l-150 -149h-248z" />
<glyph unicode="&#xcf;" d="M184 0v231h301v1033h-301v231h860v-231h-301v-1033h301v-231h-860zM223 1802q0 70 41 110t111 40q68 0 108.5 -40t40.5 -110q0 -68 -40.5 -107.5t-108.5 -39.5q-70 0 -111 40t-41 107zM705 1802q0 70 41 110t108 40q70 0 111 -40t41 -110q0 -68 -41 -107.5t-111 -39.5 q-68 0 -108.5 40t-40.5 107z" />
<glyph unicode="&#xd0;" d="M20 674v178h134v643h444q152 0 263.5 -58.5t173 -163t61.5 -245.5v-559q0 -141 -61.5 -246.5t-173 -164t-263.5 -58.5h-444v674h-134zM410 229h188q111 0 176.5 64.5t65.5 175.5v559q0 109 -65.5 173.5t-176.5 64.5h-188v-414h184v-178h-184v-445z" />
<glyph unicode="&#xd1;" d="M147 0v1495h314l416 -1208q-6 66 -12.5 154.5t-11.5 181t-5 163.5v709h233v-1495h-313l-412 1208q4 -59 10.5 -143t10.5 -172t4 -162v-731h-234zM262 1661v68q0 100 57.5 162.5t151.5 62.5q63 0 103.5 -20.5t67 -46t50 -45t56.5 -19.5q61 0 61 63v58h158v-68 q0 -100 -57.5 -162.5t-151.5 -62.5q-63 0 -103 20.5t-67 46t-50.5 45t-56.5 19.5q-61 0 -61 -68v-53h-158z" />
<glyph unicode="&#xd2;" d="M147 422v651q0 203 126 323t341 120t341 -120t126 -321v-653q0 -203 -126 -322.5t-341 -119.5t-341 119.5t-126 322.5zM272 1946h283l219 -287h-264zM403 422q0 -104 53.5 -160.5t157.5 -56.5t157.5 56t53.5 161v651q0 104 -53 160.5t-158 56.5q-104 0 -157.5 -56 t-53.5 -161v-651z" />
<glyph unicode="&#xd3;" d="M147 422v651q0 203 126 323t341 120t341 -120t126 -321v-653q0 -203 -126 -322.5t-341 -119.5t-341 119.5t-126 322.5zM403 422q0 -104 53.5 -160.5t157.5 -56.5t157.5 56t53.5 161v651q0 104 -53 160.5t-158 56.5q-104 0 -157.5 -56t-53.5 -161v-651zM458 1659l218 287 h274l-233 -287h-259z" />
<glyph unicode="&#xd4;" d="M147 422v651q0 203 126 323t341 120t341 -120t126 -321v-653q0 -203 -126 -322.5t-341 -119.5t-341 119.5t-126 322.5zM215 1659l281 287h237l281 -287h-246l-155 149l-150 -149h-248zM403 422q0 -104 53.5 -160.5t157.5 -56.5t157.5 56t53.5 161v651q0 104 -53 160.5 t-158 56.5q-104 0 -157.5 -56t-53.5 -161v-651z" />
<glyph unicode="&#xd5;" d="M147 422v651q0 203 126 323t341 120t341 -120t126 -321v-653q0 -203 -126 -322.5t-341 -119.5t-341 119.5t-126 322.5zM262 1661v68q0 100 57.5 162.5t151.5 62.5q63 0 103.5 -20.5t67 -46t50 -45t56.5 -19.5q61 0 61 63v58h158v-68q0 -100 -57.5 -162.5t-151.5 -62.5 q-63 0 -103 20.5t-67 46t-50.5 45t-56.5 19.5q-61 0 -61 -68v-53h-158zM403 422q0 -104 53.5 -160.5t157.5 -56.5t157.5 56t53.5 161v651q0 104 -53 160.5t-158 56.5q-104 0 -157.5 -56t-53.5 -161v-651z" />
<glyph unicode="&#xd6;" d="M147 422v651q0 203 126 323t341 120t341 -120t126 -321v-653q0 -203 -126 -322.5t-341 -119.5t-341 119.5t-126 322.5zM223 1802q0 70 41 110t111 40q68 0 108.5 -40t40.5 -110q0 -68 -40.5 -107.5t-108.5 -39.5q-70 0 -111 40t-41 107zM403 422q0 -104 53.5 -160.5 t157.5 -56.5t157.5 56t53.5 161v651q0 104 -53 160.5t-158 56.5q-104 0 -157.5 -56t-53.5 -161v-651zM705 1802q0 70 41 110t108 40q70 0 111 -40t41 -110q0 -68 -41 -107.5t-111 -39.5q-68 0 -108.5 40t-40.5 107z" />
<glyph unicode="&#xd7;" d="M182 403l262 263l-262 266l166 166l264 -264l269 268l166 -168l-269 -268l266 -263l-167 -167l-265 266l-264 -266z" />
<glyph unicode="&#xd8;" d="M47 -82l156 272q-55 98 -56 232v651q0 203 126 323t341 120q176 0 295 -82l60 102h213l-144 -252q43 -92 43 -209v-653q0 -203 -126 -322.5t-341 -119.5q-164 0 -278 71l-76 -133h-213zM397 532l391 689q-55 70 -174 69q-104 0 -160.5 -56.5t-56.5 -160.5v-541zM455 260 q55 -55 159 -55t160.5 56t56.5 161v500z" />
<glyph unicode="&#xd9;" d="M147 426v1069h259v-1067q0 -106 53 -165.5t155 -59.5q100 0 154.5 59.5t54.5 165.5v1067h258v-1069q0 -207 -123 -326.5t-344 -119.5q-219 0 -343 119.5t-124 326.5zM272 1946h283l219 -287h-264z" />
<glyph unicode="&#xda;" d="M147 426v1069h259v-1067q0 -106 53 -165.5t155 -59.5q100 0 154.5 59.5t54.5 165.5v1067h258v-1069q0 -207 -123 -326.5t-344 -119.5q-219 0 -343 119.5t-124 326.5zM458 1659l218 287h274l-233 -287h-259z" />
<glyph unicode="&#xdb;" d="M147 426v1069h259v-1067q0 -106 53 -165.5t155 -59.5q100 0 154.5 59.5t54.5 165.5v1067h258v-1069q0 -207 -123 -326.5t-344 -119.5q-219 0 -343 119.5t-124 326.5zM215 1659l281 287h237l281 -287h-246l-155 149l-150 -149h-248z" />
<glyph unicode="&#xdc;" d="M147 426v1069h259v-1067q0 -106 53 -165.5t155 -59.5q100 0 154.5 59.5t54.5 165.5v1067h258v-1069q0 -207 -123 -326.5t-344 -119.5q-219 0 -343 119.5t-124 326.5zM223 1802q0 70 41 110t111 40q68 0 108.5 -40t40.5 -110q0 -68 -40.5 -107.5t-108.5 -39.5 q-70 0 -111 40t-41 107zM705 1802q0 70 41 110t108 40q70 0 111 -40t41 -110q0 -68 -41 -107.5t-111 -39.5q-68 0 -108.5 40t-40.5 107z" />
<glyph unicode="&#xdd;" d="M47 1495h268l234 -518q27 -61 45 -120.5t24 -92.5q8 33 26 92t44 121l227 518h267l-439 -952v-543h-258v543zM458 1659l218 287h274l-233 -287h-259z" />
<glyph unicode="&#xde;" d="M160 0v1495h256v-289h274q213 0 337 -114.5t124 -313.5t-124 -313.5t-337 -114.5h-274v-350h-256zM416 569h243q111 0 171.5 55.5t60.5 153.5t-60.5 153.5t-171.5 55.5h-243v-418z" />
<glyph unicode="&#xdf;" d="M150 0v1071q0 133 57 233.5t161.5 156t243.5 55.5q217 0 349.5 -105.5t132.5 -286.5q0 -127 -65.5 -212t-184.5 -115q127 -33 202.5 -130.5t75.5 -238.5q0 -127 -60.5 -223t-168 -150.5t-252.5 -54.5h-119v219h105q109 0 171 61.5t62 163.5t-62.5 162t-170.5 60h-95v198 h91q98 0 154.5 58.5t56.5 152.5q0 102 -60.5 161.5t-163.5 59.5q-100 0 -160.5 -60t-60.5 -165v-1071h-239z" />
<glyph unicode="&#xe0;" d="M115 319q0 166 114.5 257.5t319.5 91.5h270v94q0 82 -54 127t-151 45q-90 0 -145 -39t-59 -96h-244q8 158 134 253t325 95q209 0 329.5 -102.5t120.5 -280.5v-764h-248v190h-4q-23 -98 -111 -154t-223 -56q-174 0 -274 91t-100 248zM283 1608h283l219 -287h-264zM371 340 q0 -80 54 -125t148 -45q109 0 177.5 54.5t68.5 144.5v135h-264q-86 0 -135 -44t-49 -120z" />
<glyph unicode="&#xe1;" d="M115 319q0 166 114.5 257.5t319.5 91.5h270v94q0 82 -54 127t-151 45q-90 0 -145 -39t-59 -96h-244q8 158 134 253t325 95q209 0 329.5 -102.5t120.5 -280.5v-764h-248v190h-4q-23 -98 -111 -154t-223 -56q-174 0 -274 91t-100 248zM371 340q0 -80 54 -125t148 -45 q109 0 177.5 54.5t68.5 144.5v135h-264q-86 0 -135 -44t-49 -120zM469 1321l218 287h274l-233 -287h-259z" />
<glyph unicode="&#xe2;" d="M115 319q0 166 114.5 257.5t319.5 91.5h270v94q0 82 -54 127t-151 45q-90 0 -145 -39t-59 -96h-244q8 158 134 253t325 95q209 0 329.5 -102.5t120.5 -280.5v-764h-248v190h-4q-23 -98 -111 -154t-223 -56q-174 0 -274 91t-100 248zM225 1321l281 287h237l281 -287h-246 l-155 149l-150 -149h-248zM371 340q0 -80 54 -125t148 -45q109 0 177.5 54.5t68.5 144.5v135h-264q-86 0 -135 -44t-49 -120z" />
<glyph unicode="&#xe3;" d="M115 319q0 166 114.5 257.5t319.5 91.5h270v94q0 82 -54 127t-151 45q-90 0 -145 -39t-59 -96h-244q8 158 134 253t325 95q209 0 329.5 -102.5t120.5 -280.5v-764h-248v190h-4q-23 -98 -111 -154t-223 -56q-174 0 -274 91t-100 248zM272 1323v68q0 100 57.5 162.5 t151.5 62.5q63 0 103.5 -20.5t67 -46t50 -45t56.5 -19.5q61 0 61 63v58h158v-68q0 -100 -57.5 -162.5t-151.5 -62.5q-63 0 -103 20.5t-67 46t-50.5 45t-56.5 19.5q-61 0 -61 -68v-53h-158zM371 340q0 -80 54 -125t148 -45q109 0 177.5 54.5t68.5 144.5v135h-264 q-86 0 -135 -44t-49 -120z" />
<glyph unicode="&#xe4;" d="M115 319q0 166 114.5 257.5t319.5 91.5h270v94q0 82 -54 127t-151 45q-90 0 -145 -39t-59 -96h-244q8 158 134 253t325 95q209 0 329.5 -102.5t120.5 -280.5v-764h-248v190h-4q-23 -98 -111 -154t-223 -56q-174 0 -274 91t-100 248zM233 1462q0 68 41 108t111 40 q68 0 108.5 -40t40.5 -108t-40.5 -107.5t-108.5 -39.5q-70 0 -111 40t-41 107zM371 340q0 -80 54 -125t148 -45q109 0 177.5 54.5t68.5 144.5v135h-264q-86 0 -135 -44t-49 -120zM715 1462q0 68 41 108t108 40q70 0 111 -40t41 -108t-41 -107.5t-111 -39.5q-68 0 -108.5 40 t-40.5 107z" />
<glyph unicode="&#xe5;" d="M115 319q0 166 114.5 257.5t319.5 91.5h270v94q0 82 -54 127t-151 45q-90 0 -145 -39t-59 -96h-244q8 158 134 253t325 95q209 0 329.5 -102.5t120.5 -280.5v-764h-248v190h-4q-23 -98 -111 -154t-223 -56q-174 0 -274 91t-100 248zM354 1483q0 113 75 181.5t196 68.5 t195.5 -69t74.5 -181q0 -111 -74.5 -179.5t-195.5 -68.5t-196 68.5t-75 179.5zM371 340q0 -80 54 -125t148 -45q109 0 177.5 54.5t68.5 144.5v135h-264q-86 0 -135 -44t-49 -120zM502 1483q0 -53 34 -86t89 -33t88.5 33t33.5 86q0 55 -33.5 88t-88.5 33t-89 -33t-34 -88z " />
<glyph unicode="&#xe6;" d="M72 279v110q0 127 90 205t237 78h115v157q0 135 -111 136q-51 0 -80.5 -34t-29.5 -95h-211q0 141 79 226t210 85q78 0 129 -25.5t77.5 -62.5t32.5 -70h13q6 33 32.5 70t76.5 62.5t128 25.5q135 0 216 -86t81 -230v-315h-438v-221q0 -61 30.5 -97t81.5 -36q55 0 85 30.5 t30 86.5h211q0 -135 -82 -217t-215 -82q-78 0 -128 25.5t-76.5 62t-32.5 69.5h-13q-6 -33 -34.5 -69.5t-84 -62t-141.5 -25.5q-127 0 -202.5 81.5t-75.5 217.5zM287 279q0 -55 29.5 -86t82.5 -31t84 35.5t31 97.5v221h-113q-55 0 -84.5 -33.5t-29.5 -93.5v-110zM719 672h227 v159q0 61 -29.5 97.5t-85.5 36.5q-53 0 -82.5 -36t-29.5 -98v-159z" />
<glyph unicode="&#xe7;" d="M143 422v283q0 135 59.5 234t167 153.5t251.5 54.5q213 0 339.5 -109.5t133.5 -298.5h-250q-6 88 -66.5 136.5t-156.5 48.5q-102 0 -162 -56.5t-60 -160.5v-285q0 -104 59.5 -161.5t162.5 -57.5q98 0 157.5 48t65.5 136h250q-6 -188 -132 -297.5t-331 -109.5l-21 -56 q59 -6 122 -27.5t107 -60.5t44 -98q0 -72 -74 -126t-197 -54h-202v131h153q49 0 79 23.5t30 49.5q0 43 -60.5 70t-167.5 27l52 133q-162 33 -257.5 145.5t-95.5 284.5z" />
<glyph unicode="&#xe8;" d="M143 422v283q0 133 58.5 232t165 154.5t249.5 55.5q141 0 247 -55.5t164 -154.5t58 -232v-203h-694v-80q0 -240 227 -240q176 0 207 117h252q-29 -145 -155 -232t-306 -87q-143 0 -249.5 55t-165 154.5t-58.5 232.5zM272 1608h283l219 -287h-264zM391 662l447 2v43 q0 117 -55.5 179t-166.5 62q-113 0 -169 -63t-56 -180v-43z" />
<glyph unicode="&#xe9;" d="M143 422v283q0 133 58.5 232t165 154.5t249.5 55.5q141 0 247 -55.5t164 -154.5t58 -232v-203h-694v-80q0 -240 227 -240q176 0 207 117h252q-29 -145 -155 -232t-306 -87q-143 0 -249.5 55t-165 154.5t-58.5 232.5zM391 662l447 2v43q0 117 -55.5 179t-166.5 62 q-113 0 -169 -63t-56 -180v-43zM458 1321l218 287h274l-233 -287h-259z" />
<glyph unicode="&#xea;" d="M143 422v283q0 133 58.5 232t165 154.5t249.5 55.5q141 0 247 -55.5t164 -154.5t58 -232v-203h-694v-80q0 -240 227 -240q176 0 207 117h252q-29 -145 -155 -232t-306 -87q-143 0 -249.5 55t-165 154.5t-58.5 232.5zM215 1321l281 287h237l281 -287h-246l-155 149 l-150 -149h-248zM391 662l447 2v43q0 117 -55.5 179t-166.5 62q-113 0 -169 -63t-56 -180v-43z" />
<glyph unicode="&#xeb;" d="M143 422v283q0 133 58.5 232t165 154.5t249.5 55.5q141 0 247 -55.5t164 -154.5t58 -232v-203h-694v-80q0 -240 227 -240q176 0 207 117h252q-29 -145 -155 -232t-306 -87q-143 0 -249.5 55t-165 154.5t-58.5 232.5zM223 1462q0 68 41 108t111 40q68 0 108.5 -40 t40.5 -108t-40.5 -107.5t-108.5 -39.5q-70 0 -111 40t-41 107zM391 662l447 2v43q0 117 -55.5 179t-166.5 62q-113 0 -169 -63t-56 -180v-43zM705 1462q0 68 41 108t108 40q70 0 111 -40t41 -108t-41 -107.5t-111 -39.5q-68 0 -108.5 40t-40.5 107z" />
<glyph unicode="&#xec;" d="M156 0v231h385v664h-344v231h600v-895h346v-231h-987zM309 1608h283l219 -287h-264z" />
<glyph unicode="&#xed;" d="M156 0v231h385v664h-344v231h600v-895h346v-231h-987zM495 1321l218 287h274l-233 -287h-259z" />
<glyph unicode="&#xee;" d="M156 0v231h385v664h-344v231h600v-895h346v-231h-987zM252 1321l281 287h237l281 -287h-246l-155 149l-150 -149h-248z" />
<glyph unicode="&#xef;" d="M156 0v231h385v664h-344v231h600v-895h346v-231h-987zM260 1462q0 68 41 108t111 40q68 0 108.5 -40t40.5 -108t-40.5 -107.5t-108.5 -39.5q-70 0 -111 40t-41 107zM742 1462q0 68 41 108t108 40q70 0 111 -40t41 -108t-41 -107.5t-111 -39.5q-68 0 -108.5 40t-40.5 107z " />
<glyph unicode="&#xf0;" d="M106 465q0 135 53.5 237.5t148.5 159t222 56.5q98 0 169 -49.5t98 -96.5h18q-2 12 -36 67.5t-109 153.5l-119 160l-324 -131v195l211 86l-143 192h289l75 -104l324 129v-195l-211 -84l131 -178q111 -152 165 -296t54 -278q0 -152 -63.5 -263t-177 -172.5t-267.5 -61.5 t-267.5 59.5t-177 166t-63.5 247.5zM365 465q0 -117 67 -186.5t182 -69.5q113 0 181.5 69.5t68.5 186.5q0 115 -68.5 184.5t-181.5 69.5q-115 0 -182 -69.5t-67 -184.5z" />
<glyph unicode="&#xf1;" d="M158 0v1126h250v-215h4q18 111 96 173.5t203 62.5q166 0 265 -110.5t99 -297.5v-739h-256v713q0 102 -54 157.5t-147 55.5q-96 0 -150 -57.5t-54 -163.5v-705h-256zM272 1323v68q0 100 57.5 162.5t151.5 62.5q63 0 103.5 -20.5t67 -46t50 -45t56.5 -19.5q61 0 61 63v58 h158v-68q0 -100 -57.5 -162.5t-151.5 -62.5q-63 0 -103 20.5t-67 46t-50.5 45t-56.5 19.5q-61 0 -61 -68v-53h-158z" />
<glyph unicode="&#xf2;" d="M143 424v278q0 203 127 323t344 120t344 -120t127 -320v-281q0 -203 -127 -322.5t-344 -119.5t-344 119.5t-127 322.5zM272 1608h283l219 -287h-264zM399 424q0 -106 56.5 -162.5t158.5 -56.5t158.5 56t56.5 163v278q0 106 -56 163t-159 57q-102 0 -158.5 -56.5 t-56.5 -163.5v-278z" />
<glyph unicode="&#xf3;" d="M143 424v278q0 203 127 323t344 120t344 -120t127 -320v-281q0 -203 -127 -322.5t-344 -119.5t-344 119.5t-127 322.5zM399 424q0 -106 56.5 -162.5t158.5 -56.5t158.5 56t56.5 163v278q0 106 -56 163t-159 57q-102 0 -158.5 -56.5t-56.5 -163.5v-278zM458 1321l218 287 h274l-233 -287h-259z" />
<glyph unicode="&#xf4;" d="M143 424v278q0 203 127 323t344 120t344 -120t127 -320v-281q0 -203 -127 -322.5t-344 -119.5t-344 119.5t-127 322.5zM215 1321l281 287h237l281 -287h-246l-155 149l-150 -149h-248zM399 424q0 -106 56.5 -162.5t158.5 -56.5t158.5 56t56.5 163v278q0 106 -56 163 t-159 57q-102 0 -158.5 -56.5t-56.5 -163.5v-278z" />
<glyph unicode="&#xf5;" d="M143 424v278q0 203 127 323t344 120t344 -120t127 -320v-281q0 -203 -127 -322.5t-344 -119.5t-344 119.5t-127 322.5zM262 1323v68q0 100 57.5 162.5t151.5 62.5q63 0 103.5 -20.5t67 -46t50 -45t56.5 -19.5q61 0 61 63v58h158v-68q0 -100 -57.5 -162.5t-151.5 -62.5 q-63 0 -103 20.5t-67 46t-50.5 45t-56.5 19.5q-61 0 -61 -68v-53h-158zM399 424q0 -106 56.5 -162.5t158.5 -56.5t158.5 56t56.5 163v278q0 106 -56 163t-159 57q-102 0 -158.5 -56.5t-56.5 -163.5v-278z" />
<glyph unicode="&#xf6;" d="M143 424v278q0 203 127 323t344 120t344 -120t127 -320v-281q0 -203 -127 -322.5t-344 -119.5t-344 119.5t-127 322.5zM223 1462q0 68 41 108t111 40q68 0 108.5 -40t40.5 -108t-40.5 -107.5t-108.5 -39.5q-70 0 -111 40t-41 107zM399 424q0 -106 56.5 -162.5 t158.5 -56.5t158.5 56t56.5 163v278q0 106 -56 163t-159 57q-102 0 -158.5 -56.5t-56.5 -163.5v-278zM705 1462q0 68 41 108t108 40q70 0 111 -40t41 -108t-41 -107.5t-111 -39.5q-68 0 -108.5 40t-40.5 107z" />
<glyph unicode="&#xf7;" d="M205 563v232h819v-232h-819zM424 242q0 78 52 125t138 47t138.5 -47.5t52.5 -124.5q0 -76 -52.5 -123t-138.5 -47t-138 47t-52 123zM424 1114q0 76 52 124t138 48t138.5 -48t52.5 -124q0 -78 -52.5 -125t-138.5 -47t-138 47t-52 125z" />
<glyph unicode="&#xf8;" d="M59 -61l160 225q-72 106 -72 258v283q0 203 126 322.5t341 119.5q147 0 256 -57l84 118h215l-165 -235q78 -111 77 -266v-285q0 -203 -126 -322.5t-341 -119.5q-154 0 -266 63l-74 -104h-215zM387 403l348 494q-51 27 -121 27q-109 0 -168 -58.5t-59 -160.5v-283v-2v-17z M483 233q53 -30 131 -30q109 0 168.5 58t59.5 161v283q0 20 -2 36z" />
<glyph unicode="&#xf9;" d="M154 426v700h256v-698q0 -109 53 -167t151 -58q96 0 150.5 58t54.5 167v698h256v-700q0 -207 -125 -326.5t-336 -119.5q-215 0 -337.5 119.5t-122.5 326.5zM272 1608h283l219 -287h-264z" />
<glyph unicode="&#xfa;" d="M154 426v700h256v-698q0 -109 53 -167t151 -58q96 0 150.5 58t54.5 167v698h256v-700q0 -207 -125 -326.5t-336 -119.5q-215 0 -337.5 119.5t-122.5 326.5zM458 1321l218 287h274l-233 -287h-259z" />
<glyph unicode="&#xfb;" d="M154 426v700h256v-698q0 -109 53 -167t151 -58q96 0 150.5 58t54.5 167v698h256v-700q0 -207 -125 -326.5t-336 -119.5q-215 0 -337.5 119.5t-122.5 326.5zM215 1321l281 287h237l281 -287h-246l-155 149l-150 -149h-248z" />
<glyph unicode="&#xfc;" d="M154 426v700h256v-698q0 -109 53 -167t151 -58q96 0 150.5 58t54.5 167v698h256v-700q0 -207 -125 -326.5t-336 -119.5q-215 0 -337.5 119.5t-122.5 326.5zM223 1462q0 68 41 108t111 40q68 0 108.5 -40t40.5 -108t-40.5 -107.5t-108.5 -39.5q-70 0 -111 40t-41 107z M705 1462q0 68 41 108t108 40q70 0 111 -40t41 -108t-41 -107.5t-111 -39.5q-68 0 -108.5 40t-40.5 107z" />
<glyph unicode="&#xfd;" d="M66 1126h278l221 -575q18 -47 34.5 -113.5t25.5 -109.5q10 43 27.5 109.5t33.5 113.5l211 575h266l-555 -1495h-268l160 430zM458 1321l218 287h274l-233 -287h-259z" />
<glyph unicode="&#xfe;" d="M154 -348v1843h256v-315l-9 -269q18 111 99.5 173.5t206.5 62.5q170 0 272 -117t102 -315v-305q0 -199 -103.5 -314.5t-270.5 -115.5q-123 0 -203 59t-101 168v-555h-249zM410 422q0 -104 54 -162.5t152 -58.5t152.5 57t54.5 164v283q0 106 -54 163.5t-153 57.5 q-98 0 -152 -58.5t-54 -162.5v-283z" />
<glyph unicode="&#xff;" d="M66 1126h278l221 -575q18 -47 34.5 -113.5t25.5 -109.5q10 43 27.5 109.5t33.5 113.5l211 575h266l-555 -1495h-268l160 430zM223 1462q0 68 41 108t111 40q68 0 108.5 -40t40.5 -108t-40.5 -107.5t-108.5 -39.5q-70 0 -111 40t-41 107zM705 1462q0 68 41 108t108 40 q70 0 111 -40t41 -108t-41 -107.5t-111 -39.5q-68 0 -108.5 40t-40.5 107z" />
<glyph unicode="&#x152;" d="M70 387v729q0 186 80.5 293t224.5 107q74 0 122 -30t73.5 -72t29.5 -83h10v164h574v-219h-344v-397h293v-222h-293v-436h344v-221h-574v172h-10q-4 -41 -29.5 -84t-73.5 -71.5t-122 -28.5q-143 0 -224 106.5t-81 292.5zM313 387q0 -86 39 -134t107 -48t106.5 48t38.5 134 v729q0 86 -39 134t-106 48q-68 0 -107 -49t-39 -133v-729z" />
<glyph unicode="&#x153;" d="M72 295v536q0 143 80.5 229.5t216.5 86.5q78 0 129 -25.5t77.5 -62.5t32.5 -70h13q4 33 30.5 70t77.5 62.5t131 25.5q135 0 216 -86t81 -230v-319h-438v-217q0 -61 30.5 -97t81.5 -36q49 0 79 29.5t34 82.5h211q-8 -135 -89 -214.5t-206 -79.5q-80 0 -131 25.5t-77.5 62 t-30.5 69.5h-13q-6 -33 -32.5 -69.5t-77.5 -62t-129 -25.5q-135 0 -216 86t-81 229zM283 295q0 -61 30.5 -97t83.5 -36t83 34.5t30 98.5v536q0 63 -29.5 98.5t-83.5 35.5q-53 0 -83.5 -36t-30.5 -98v-536zM719 670h227v161q0 63 -29.5 98.5t-85.5 35.5q-51 0 -81.5 -36 t-30.5 -98v-161z" />
<glyph unicode="&#x178;" d="M47 1495h268l234 -518q27 -61 45 -120.5t24 -92.5q8 33 26 92t44 121l227 518h267l-439 -952v-543h-258v543zM223 1802q0 70 41 110t111 40q68 0 108.5 -40t40.5 -110q0 -68 -40.5 -107.5t-108.5 -39.5q-70 0 -111 40t-41 107zM705 1802q0 70 41 110t108 40q70 0 111 -40 t41 -110q0 -68 -41 -107.5t-111 -39.5q-68 0 -108.5 40t-40.5 107z" />
<glyph unicode="&#x2c6;" d="M215 1321l281 287h237l281 -287h-246l-155 149l-150 -149h-248z" />
<glyph unicode="&#x2dc;" d="M262 1323v68q0 100 57.5 162.5t151.5 62.5q63 0 103.5 -20.5t67 -46t50 -45t56.5 -19.5q61 0 61 63v58h158v-68q0 -100 -57.5 -162.5t-151.5 -62.5q-63 0 -103 20.5t-67 46t-50.5 45t-56.5 19.5q-61 0 -61 -68v-53h-158z" />
<glyph unicode="&#x2000;" horiz-adv-x="1026" />
<glyph unicode="&#x2001;" horiz-adv-x="2052" />
<glyph unicode="&#x2002;" horiz-adv-x="1026" />
<glyph unicode="&#x2003;" horiz-adv-x="2052" />
<glyph unicode="&#x2004;" horiz-adv-x="684" />
<glyph unicode="&#x2005;" horiz-adv-x="513" />
<glyph unicode="&#x2006;" horiz-adv-x="342" />
<glyph unicode="&#x2007;" horiz-adv-x="342" />
<glyph unicode="&#x2008;" horiz-adv-x="256" />
<glyph unicode="&#x2009;" horiz-adv-x="410" />
<glyph unicode="&#x200a;" horiz-adv-x="114" />
<glyph unicode="&#x2010;" d="M287 557v238h655v-238h-655z" />
<glyph unicode="&#x2011;" d="M287 557v238h655v-238h-655z" />
<glyph unicode="&#x2012;" d="M287 557v238h655v-238h-655z" />
<glyph unicode="&#x2013;" d="M158 557v238h913v-238h-913z" />
<glyph unicode="&#x2014;" d="M0 557v238h1229v-238h-1229z" />
<glyph unicode="&#x2018;" d="M414 1143q0 66 29.5 141.5t109.5 210.5h244q-59 -102 -91 -162.5t-44.5 -98.5t-12.5 -71q0 -47 30 -73.5t83 -26.5h59v-221h-73q-158 0 -246 78.5t-88 222.5z" />
<glyph unicode="&#x2019;" d="M408 1273v222h73q158 0 246 -79t88 -222q0 -66 -29.5 -142t-109.5 -211h-244q59 102 91 163t44.5 98.5t12.5 70.5q0 47 -30 73.5t-83 26.5h-59z" />
<glyph unicode="&#x201a;" d="M408 104v222h73q158 0 246 -79t88 -222q0 -66 -29.5 -142t-109.5 -211h-244q59 102 91 163t44.5 98.5t12.5 70.5q0 47 -30 73.5t-83 26.5h-59z" />
<glyph unicode="&#x201c;" d="M152 1143q0 66 28.5 141.5t108.5 210.5h243q-59 -102 -90.5 -162.5t-44 -98.5t-12.5 -71q0 -47 29.5 -73.5t85.5 -26.5h57v-221h-74q-158 0 -244.5 78.5t-86.5 222.5zM616 1143q0 66 30 141.5t108 210.5h245q-59 -102 -92 -162.5t-45 -98.5t-12 -71q0 -47 30.5 -73.5 t84.5 -26.5h59v-221h-76q-156 0 -244 78.5t-88 222.5z" />
<glyph unicode="&#x201d;" d="M205 1273v222h73q158 0 246 -79t88 -222q0 -66 -29.5 -142t-109.5 -211h-244q59 102 91 163t44.5 98.5t12.5 70.5q0 47 -30 73.5t-83 26.5h-59zM672 1273v222h73q158 0 246 -79t88 -222q0 -66 -29.5 -142t-109.5 -211h-244q59 102 91 163t44.5 98.5t12.5 70.5 q0 47 -30 73.5t-83 26.5h-59z" />
<glyph unicode="&#x201e;" d="M205 104v222h73q158 0 246 -79t88 -222q0 -66 -29.5 -142t-109.5 -211h-244q59 102 91 163t44.5 98.5t12.5 70.5q0 47 -30 73.5t-83 26.5h-59zM672 104v222h73q158 0 246 -79t88 -222q0 -66 -29.5 -142t-109.5 -211h-244q59 102 91 163t44.5 98.5t12.5 70.5 q0 47 -30 73.5t-83 26.5h-59z" />
<glyph unicode="&#x2022;" d="M350 748q0 117 74 190.5t190 73.5q117 0 191 -74t74 -190q0 -117 -74 -191t-191 -74t-190.5 74t-73.5 191z" />
<glyph unicode="&#x2026;" d="M104 104v132q0 55 33 89.5t86 34.5q55 0 89 -34.5t34 -89.5v-132q0 -57 -34 -90.5t-89 -33.5q-53 0 -86 33.5t-33 90.5zM494 104v132q0 55 32.5 89.5t85.5 34.5q55 0 89 -34.5t34 -89.5v-132q0 -57 -34 -90.5t-89 -33.5q-53 0 -85.5 33.5t-32.5 90.5zM883 104v132 q0 55 32.5 89.5t85.5 34.5q55 0 89 -34.5t34 -89.5v-132q0 -57 -34 -90.5t-89 -33.5q-53 0 -85.5 33.5t-32.5 90.5z" />
<glyph unicode="&#x202f;" horiz-adv-x="410" />
<glyph unicode="&#x2039;" d="M287 573l381 492h266l-377 -490l385 -493h-274z" />
<glyph unicode="&#x203a;" d="M287 1065h274l381 -492l-381 -491h-266l379 489z" />
<glyph unicode="&#x205f;" horiz-adv-x="513" />
<glyph unicode="&#x20ac;" d="M29 477v170h137v180h-137v170h137v45q0 137 60.5 238.5t171 158t257.5 56.5q143 0 250 -53t169.5 -151.5t68.5 -231.5h-258q-4 98 -65.5 152.5t-164.5 54.5q-109 0 -171 -59.5t-62 -164.5v-45h317v-170h-317v-180h317v-170h-317v-45q0 -104 61.5 -163.5t169.5 -59.5 q104 0 166 54t66 153h258q-10 -201 -142.5 -318.5t-347.5 -117.5q-147 0 -256.5 56t-170 157.5t-60.5 238.5v45h-137z" />
<glyph unicode="&#x2122;" d="M31 1374v121h538v-121h-204v-616h-136v616h-198zM627 758v737h174l63 -209q8 -31 18.5 -74t14.5 -71q4 29 12.5 71.5t18.5 73.5l61 209h168v-737h-125v372q0 39 4 93.5t9.5 111t9.5 99.5q-10 -41 -25.5 -101.5t-25.5 -99.5l-52 -174h-114l-56 176q-12 39 -27.5 96.5 t-25.5 95.5q6 -57 14.5 -143t8.5 -145v-381h-125z" />
<glyph unicode="&#x25fc;" horiz-adv-x="1126" d="M0 0v1126h1126v-1126h-1126z" />
</font>
</defs>
</svg>
