<?xml version="1.0" standalone="no"?>
<!DOCTYPE svg PUBLIC "-//W3C//DTD SVG 1.1//EN" "http://www.w3.org/Graphics/SVG/1.1/DTD/svg11.dtd" >
<svg xmlns="http://www.w3.org/2000/svg" xmlns:xlink="http://www.w3.org/1999/xlink" version="1.1">
<metadata></metadata>
<defs>
<font id="jetbrains_monoregular" horiz-adv-x="1228" >
<font-face units-per-em="2048" ascent="1638" descent="-410" />
<missing-glyph horiz-adv-x="500" />
<glyph horiz-adv-x="0" />
<glyph horiz-adv-x="682" />
<glyph unicode="&#xd;" />
<glyph unicode=" " />
<glyph unicode="!" d="M461 113q0 53 34.5 88t88.5 35h61q59 0 91 -34t32 -87t-35 -89t-88 -36h-61q-53 0 -88 34.5t-35 88.5zM506 1249v246h217v-246l-43 -809h-131z" />
<glyph unicode="&#x22;" d="M307 1311v184h199v-184l-23 -430h-151zM723 1311v184h199v-184l-23 -430h-151z" />
<glyph unicode="#" d="M72 410v133h198l74 409h-201v133h226l75 410h144l-76 -410h328l75 410h144l-76 -410h174v-133h-199l-73 -409h200v-133h-225l-76 -410h-143l76 410h-328l-76 -410h-143l76 410h-174zM414 543h327l74 409h-328z" />
<glyph unicode="$" d="M147 389h185q0 -100 60.5 -163.5t170.5 -78.5v537l-55 16q-154 47 -237 158t-83 260q0 164 101.5 270.5t273.5 122.5v271h123v-269q170 -16 272.5 -122.5t104.5 -274.5h-184q0 96 -50.5 156.5t-142.5 75.5v-508l82 -27q150 -47 231.5 -159.5t81.5 -264.5 q0 -168 -107.5 -278.5t-287.5 -128.5v-269h-123v269q-193 16 -302 123.5t-114 283.5zM373 1135q0 -106 65.5 -179t188.5 -92l-64 -67v551q-90 -14 -140 -69.5t-50 -143.5zM686 147q100 16 155.5 78t55.5 160q0 90 -48 157.5t-138 94.5l-25 8v-498z" />
<glyph unicode="%" d="M29 0l1020 1495h151l-1020 -1495h-151zM33 1096v133q0 129 77.5 202.5t206.5 73.5t207 -73.5t78 -202.5v-133q0 -129 -78 -203t-207 -74t-206.5 74t-77.5 203zM184 1096q0 -70 33.5 -104t99.5 -34q133 0 134 138v133q0 137 -134 137q-66 0 -99.5 -34t-33.5 -103v-133z M627 266v133q0 129 77.5 203t206.5 74t207 -74t78 -203v-133q0 -129 -78 -202.5t-207 -73.5t-206.5 73.5t-77.5 202.5zM778 266q0 -135 133 -135t133 135v133q0 137 -133 138q-133 0 -133 -138v-133z" />
<glyph unicode="&#x26;" d="M113 317v256q0 109 56 183.5t161 105.5l-15 21q-63 86 -91.5 159.5t-28.5 147.5q0 98 46 172t129 114t193 40q119 0 206 -43t134 -121t47 -187h-184q0 59 -24.5 102.5t-69.5 66t-109 22.5q-55 0 -97 -20.5t-64.5 -58.5t-22.5 -91q0 -51 21.5 -110.5t60.5 -112.5l352 -486 l145 260h193l-231 -407l239 -330h-203l-129 178q-151 -198 -356 -198q-168 0 -263 90t-95 247zM297 317q0 -82 48 -128t136 -46q70 0 134.5 46.5t109.5 127.5l-301 416q-63 -10 -95 -51t-32 -109v-256z" />
<glyph unicode="'" d="M504 1188v307h198v-307l-22 -307h-152z" />
<glyph unicode="(" d="M379 553v369q0 201 74.5 363.5t213 275t326.5 159.5v-174q-131 -31 -227 -118t-149.5 -216t-53.5 -290v-369q0 -158 52.5 -287t149.5 -214t228 -115v-183q-291 72 -452.5 283t-161.5 516z" />
<glyph unicode=")" d="M236 -63q133 31 229 115.5t148.5 213.5t52.5 287v369q0 162 -53.5 290.5t-149.5 216t-227 117.5v174q190 -47 327 -159.5t212 -275.5t75 -363v-369q0 -305 -161.5 -516t-452.5 -283v183z" />
<glyph unicode="*" d="M72 793l61 170l180 -66q43 -14 89.5 -40t89.5 -53.5t73 -51.5l10 8q-10 39 -22 89t-20.5 104.5t-8.5 101.5v194h181v-194q0 -47 -8.5 -101.5t-20.5 -104.5t-25 -89l11 -8q33 25 74.5 52t87.5 53t89 40l183 66l61 -170l-182 -66q-41 -14 -91 -25.5t-99.5 -16.5t-88.5 -9 l-8 -17q31 -25 69 -58.5t73.5 -71t60.5 -74.5l113 -160l-148 -102l-113 159q-25 37 -48 84t-42.5 94.5t-31.5 83.5h-15q-12 -37 -31.5 -84t-43 -94t-50.5 -84l-110 -159l-148 102l111 160q27 39 63.5 76.5t74.5 71.5t67 59l-7 14q-39 4 -88 9t-99 16.5t-93 25.5z" />
<glyph unicode="+" d="M133 594v164h391v399h181v-399h391v-164h-391v-399h-181v399h-391z" />
<glyph unicode="," d="M338 -328l164 637h266l-266 -637h-164z" />
<glyph unicode="-" d="M287 594v164h655v-164h-655z" />
<glyph unicode="." d="M444 145q0 80 46.5 127t123.5 47q78 0 124 -47t46 -127q0 -76 -46 -120.5t-124 -44.5t-124 45t-46 120z" />
<glyph unicode="/" d="M154 -225l727 1925h194l-727 -1925h-194z" />
<glyph unicode="0" d="M164 420v655q0 135 55 233.5t156.5 153t238.5 54.5q139 0 239.5 -54.5t156 -153t55.5 -233.5v-655q0 -133 -55.5 -232.5t-157 -153.5t-238.5 -54t-238.5 54t-156.5 153.5t-55 232.5zM342 420q0 -125 74.5 -204t197.5 -79t198 79t75 204v655q0 125 -75 204t-198 79 t-197.5 -79t-74.5 -204v-655zM492 754q0 55 33.5 89t88.5 34t89 -34t34 -89q0 -57 -34 -92t-89 -35t-88.5 34.5t-33.5 92.5z" />
<glyph unicode="1" d="M184 0v168h406v1173l-406 -303v205l338 252h252v-1327h332v-168h-922z" />
<glyph unicode="2" d="M147 1075q4 135 62.5 234.5t162 153t240.5 53.5q135 0 234.5 -52.5t153 -148.5t53.5 -230q0 -127 -67.5 -251.5t-221.5 -284.5l-369 -381h682v-168h-889v188l457 486q117 125 170 222t53 187q0 125 -68.5 197t-187.5 72q-131 0 -205.5 -74t-74.5 -203h-185z" />
<glyph unicode="3" d="M143 410h185q0 -125 70.5 -196t195.5 -71q127 0 196.5 74t69.5 193v106q0 127 -69.5 196.5t-196.5 69.5h-154v185l371 360h-606v168h792v-184l-399 -387v22q205 0 325.5 -116.5t120.5 -313.5v-106q0 -129 -56 -225.5t-158.5 -150.5t-237.5 -54t-236.5 54t-157 150.5 t-55.5 225.5z" />
<glyph unicode="4" d="M164 328v288l592 879h200l-608 -917v-82h492v364h184v-860h-184v328h-676z" />
<glyph unicode="5" d="M174 328h184q10 -88 76 -136.5t178 -48.5q129 0 193.5 70t64.5 197v145q0 127 -64.5 196.5t-191.5 69.5q-80 0 -139 -42t-86 -111h-184l10 827h786v-168h-608l-6 -498h57l-57 -53q0 96 77 151.5t206 55.5q182 2 283.5 -111.5t101.5 -316.5v-145q0 -199 -117 -314.5 t-328 -115.5q-182 0 -298.5 94t-137.5 254z" />
<glyph unicode="6" d="M139 461q0 113 32 221.5t95 208.5l375 604h205l-424 -680l8 -6q39 57 106.5 88t151.5 31q123 0 213 -57.5t139.5 -162t49.5 -247.5t-59.5 -252t-165.5 -169t-249 -60t-250.5 60t-167 168.5t-59.5 252.5zM324 461q0 -143 79.5 -230.5t210.5 -87.5t211 87t80 231 q0 143 -80 230t-211 87t-210.5 -87t-79.5 -230z" />
<glyph unicode="7" d="M164 1106v389h932v-180l-518 -1315h-199l534 1327h-565v-221h-184z" />
<glyph unicode="8" d="M164 377q0 133 72.5 229t230.5 172l199 96q90 43 139 113t49 154q0 98 -64.5 155.5t-175.5 57.5t-175 -58.5t-64 -156.5q0 -82 48 -151.5t132 -110.5l199 -95q164 -76 237.5 -173t73.5 -232q0 -182 -122 -289.5t-329 -107.5q-137 0 -238.5 48t-156.5 138t-55 211z M195 1145q0 115 51 198.5t145 129t223 45.5t223.5 -45.5t145.5 -129t51 -198.5q0 -129 -73.5 -220t-243.5 -175l-197 -97q-84 -41 -130 -111.5t-46 -156.5q0 -111 72.5 -176.5t197.5 -65.5t198 64.5t73 173.5q0 88 -47 159.5t-136 114.5l-196 97q-164 80 -237.5 172 t-73.5 221z" />
<glyph unicode="9" d="M139 1034q0 145 59.5 253t166 168.5t247.5 60.5q143 0 251 -60.5t167.5 -168t59.5 -253.5q0 -113 -32 -221t-95 -209l-375 -604h-205l424 680l-8 6q-39 -57 -106.5 -88t-151.5 -31q-121 0 -212 57.5t-140.5 163t-49.5 246.5zM324 1034q0 -143 79.5 -230t210.5 -87t211 87 t80 230t-80 230.5t-211 87.5t-210.5 -87t-79.5 -231z" />
<glyph unicode=":" d="M444 133q0 70 47.5 112t122.5 42q78 0 124 -42t46 -112t-46 -111.5t-124 -41.5q-76 0 -123 41.5t-47 111.5zM444 993q0 70 47.5 112t122.5 42q78 0 124 -42t46 -112t-46 -111.5t-124 -41.5q-76 0 -123 42t-47 111z" />
<glyph unicode=";" d="M348 -328l164 637h266l-266 -637h-164zM440 993q0 66 44 110t110 44h41q66 0 109.5 -44t43.5 -110q0 -68 -43 -110.5t-110 -42.5h-41q-68 0 -111 43t-43 110z" />
<glyph unicode="&#x3c;" d="M174 573v205l881 441v-179l-635 -311q-39 -18 -73 -31.5t-50 -17.5q18 -4 53 -17.5t70 -31.5l635 -314v-184z" />
<glyph unicode="=" d="M174 348v164h881v-164h-881zM174 840v164h881v-164h-881z" />
<glyph unicode="&#x3e;" d="M174 133v178l635 312q39 18 72.5 31.5t50.5 17.5q-18 4 -53 17t-70 32l-635 313v185l881 -441v-205z" />
<glyph unicode="?" d="M276 1321v174h256q143 0 249 -54.5t164.5 -152.5t58.5 -233q0 -117 -49.5 -210t-136.5 -148.5t-202 -61.5v-215h-184v368h103q131 0 207.5 73t76.5 194t-76.5 193.5t-210.5 72.5h-256zM369 113q0 53 34.5 88t88.5 35h61q59 0 91 -34t32 -87t-35 -89t-88 -36h-61 q-53 0 -88 34.5t-35 88.5z" />
<glyph unicode="@" d="M92 225v697q0 184 66.5 317t190.5 205t296 72q156 0 268.5 -60.5t173 -173.5t60.5 -268v-881h-146v113h-57l39 41q0 -78 -59.5 -126t-157.5 -48q-133 0 -203.5 80.5t-70.5 236.5v246q0 156 70.5 236.5t203.5 80.5q98 0 157.5 -48t59.5 -128l-29 43h50l-21 144v10 q0 117 -39 196.5t-113.5 120.5t-185.5 41q-184 0 -286.5 -118.5t-102.5 -331.5v-697q0 -205 109.5 -322.5t300.5 -117.5h143v-154h-143q-174 0 -303.5 73t-200 207t-70.5 314zM655 430q0 -96 41 -142t123 -46q84 0 124 51t40 158v227q0 96 -40 141t-124 45q-82 0 -123 -46 t-41 -142v-246z" />
<glyph unicode="A" d="M102 0l390 1495h247l387 -1495h-186l-98 397h-453l-98 -397h-189zM426 553h377l-115 461q-33 131 -51.5 219t-22.5 115q-4 -27 -22.5 -115t-50.5 -217z" />
<glyph unicode="B" d="M190 0v1495h424q205 0 321 -102.5t116 -284.5q0 -102 -43 -178t-122 -117q-75 -39 -180 -39h-10v31h10q113 0 196 -45q87 -47 135 -135t48 -209q0 -127 -53 -221.5t-151.5 -144.5t-235.5 -50h-455zM371 166h254q129 0 203.5 68.5t74.5 187.5q0 123 -74.5 199.5 t-203.5 76.5h-254v-532zM371 858h241q119 0 187.5 63.5t68.5 172.5t-67.5 172t-186.5 63h-243v-471z" />
<glyph unicode="C" d="M180 410v675q0 135 54.5 231.5t153.5 148t235 51.5q135 0 233 -52.5t151.5 -148.5t53.5 -230h-184q0 127 -67 196t-187 69q-121 0 -189.5 -68t-68.5 -195v-677q0 -127 68.5 -196t189.5 -69t187.5 69t66.5 196h184q0 -131 -53.5 -228.5t-151.5 -149.5t-233 -52t-234.5 51 t-154 148t-54.5 231z" />
<glyph unicode="D" d="M188 0v1495h387q145 0 251 -55.5t164.5 -155.5t58.5 -237v-596q0 -137 -58.5 -238.5t-164 -157t-251.5 -55.5h-387zM373 164h202q135 0 212 75.5t77 211.5v596q0 133 -76.5 208.5t-212.5 75.5h-202v-1167z" />
<glyph unicode="E" d="M205 0v1495h860v-168h-678v-463h606v-166h-606v-530h678v-168h-860z" />
<glyph unicode="F" d="M195 0v1497h880v-168h-700v-498h647v-167h-643v-664h-184z" />
<glyph unicode="G" d="M180 410v675q0 135 54.5 231.5t153.5 148t235 51.5q135 0 233 -52.5t151.5 -148.5t53.5 -230h-184q0 127 -67 196t-187 69q-121 0 -189.5 -68t-68.5 -195v-677q0 -127 68.5 -197t189.5 -70t187.5 70t66.5 197v184h-304v168h488v-352q0 -131 -53.5 -228.5t-151.5 -149.5 t-233 -52t-234.5 51t-154 148t-54.5 231z" />
<glyph unicode="H" d="M190 0v1495h185v-639h479v639h184v-1495h-184v688h-479v-688h-185z" />
<glyph unicode="I" d="M215 0v168h305v1159h-305v168h799v-168h-305v-1159h305v-168h-799z" />
<glyph unicode="J" d="M92 430h184q0 -137 73 -212t204 -75t203.5 75t72.5 212v897h-358v168h543v-1065q0 -209 -124 -329.5t-337 -120.5q-215 0 -338 120.5t-123 329.5z" />
<glyph unicode="K" d="M188 0v1495h185v-641h221l332 641h200l-370 -719l391 -776h-211l-348 692h-215v-692h-185z" />
<glyph unicode="L" d="M236 0v1495h184v-1327h676v-168h-860z" />
<glyph unicode="M" d="M156 0v1495h241l156 -483q23 -66 41 -130.5t27 -99.5q10 35 26.5 99.5t36.5 132.5l147 481h242v-1495h-180v543q0 90 6 204.5t16.5 234.5t21.5 229.5t19 191.5l-241 -748h-195l-244 748q10 -80 20.5 -185.5t19 -223t14.5 -234.5t6 -217v-543h-180z" />
<glyph unicode="N" d="M184 0v1495h246l457 -1280q-4 51 -9.5 126t-8.5 158t-3 156v840h178v-1495h-245l-455 1280q4 -49 8 -124t7 -158t3 -158v-840h-178z" />
<glyph unicode="O" d="M180 410v675q0 135 52.5 231.5t149.5 148t232 51.5t232.5 -51.5t150 -147.5t52.5 -230v-677q0 -133 -52.5 -230.5t-150 -148.5t-232.5 -51t-232 51t-149.5 148t-52.5 231zM365 410q0 -127 65 -196t184 -69q121 0 185.5 69t64.5 196v675q0 127 -64.5 196t-185.5 69 q-119 0 -184 -69t-65 -196v-675z" />
<glyph unicode="P" d="M188 0v1495h482q139 0 241.5 -54.5t158.5 -152.5t56 -233q0 -133 -56 -232.5t-158.5 -154t-241.5 -54.5h-297v-614h-185zM373 780h297q121 0 193.5 75t72.5 200q0 127 -72.5 200.5t-193.5 73.5h-297v-549z" />
<glyph unicode="Q" d="M164 420v655q0 135 55 233.5t156.5 153t238.5 54.5q139 0 239.5 -54.5t156 -153t55.5 -233.5v-655q0 -137 -59.5 -239.5t-167.5 -153.5l239 -396h-213l-219 363l21 -12q-8 0 -21.5 -1t-30.5 -1q-137 0 -238.5 54t-156.5 153.5t-55 232.5zM348 420q0 -125 72.5 -201 t193.5 -76t194 76t73 201v655q0 127 -73 202t-194 75t-193.5 -75t-72.5 -202v-655z" />
<glyph unicode="R" d="M188 0v1495h463q133 0 233.5 -54.5t156 -150.5t55.5 -225q0 -152 -79 -260.5t-214 -149.5l313 -655h-217l-287 635h-239v-635h-185zM373 801h278q115 0 184.5 72.5t69.5 191.5q0 121 -69.5 192.5t-184.5 71.5h-278v-528z" />
<glyph unicode="S" d="M147 389h185q0 -113 76.5 -178.5t214.5 -65.5q129 0 201.5 63.5t72.5 176.5q0 90 -48 157.5t-138 94.5l-203 63q-154 47 -237 158t-83 260q0 121 54.5 210t153 139.5t231.5 50.5q197 0 315.5 -110t120.5 -292h-184q0 111 -67 173.5t-187 62.5q-119 0 -185.5 -57.5 t-66.5 -159.5q0 -92 49 -160t141 -96l205 -66q150 -47 231.5 -159.5t81.5 -264.5q0 -123 -57 -215t-160.5 -143t-240.5 -51q-147 0 -253 49t-163 141t-60 219z" />
<glyph unicode="T" d="M113 1329v168h1003v-168h-409v-1329h-185v1329h-409z" />
<glyph unicode="U" d="M184 410v1085h185v-1085q0 -123 60 -195t185 -72q123 0 184.5 72t61.5 195v1085h184v-1085q0 -201 -109.5 -315.5t-320.5 -114.5q-209 0 -319.5 115.5t-110.5 314.5z" />
<glyph unicode="V" d="M102 1495h191l254 -1016q27 -106 45 -197.5t26 -138.5q8 47 26 138.5t44 197.5l252 1016h186l-387 -1495h-252z" />
<glyph unicode="W" d="M51 1495h176l113 -1106q4 -45 8 -93t7 -91t3 -72q4 29 7.5 72t8.5 91t11 93l139 1106h191l127 -1106q6 -45 11 -93t10 -91t7 -72q2 29 5.5 72t8.5 91t9 93l117 1106h168l-177 -1495h-231l-127 1126q-4 47 -9 92.5t-9 84t-7 63.5q-2 -25 -7 -63.5t-9 -83.5t-10 -93 l-137 -1126h-232z" />
<glyph unicode="X" d="M82 0l430 758l-408 737h213l232 -442q18 -35 37.5 -75t31.5 -63q10 23 30 63t38 75l236 442h202l-407 -725l430 -770h-211l-256 475q-18 35 -37.5 75t-30.5 64q-10 -25 -29.5 -63.5t-37.5 -73.5l-258 -477h-205z" />
<glyph unicode="Y" d="M72 1495h190l297 -614q25 -51 39 -87t18 -53q4 16 19.5 52t40.5 88l291 614h190l-450 -936v-559h-185v559z" />
<glyph unicode="Z" d="M174 0v184l674 1143h-664v168h850v-184l-674 -1143h695v-168h-881z" />
<glyph unicode="[" d="M420 -225v1925h502v-164h-318v-1597h318v-164h-502z" />
<glyph unicode="\" d="M154 1700h194l727 -1925h-194z" />
<glyph unicode="]" d="M307 -61h318v1597h-318v164h502v-1925h-502v164z" />
<glyph unicode="^" d="M164 696l366 799h172l363 -799h-166l-229 529q-16 41 -29.5 78.5t-19.5 58.5q-8 -20 -22.5 -58t-33.5 -79l-235 -529h-166z" />
<glyph unicode="_" d="M123 -51h983v-154h-983v154z" />
<glyph unicode="`" d="M373 1608h205l225 -287h-195z" />
<glyph unicode="a" d="M133 317q0 158 102.5 248t276.5 90h348v113q0 104 -62.5 160.5t-176.5 56.5q-100 0 -168 -42t-78 -114h-185q18 145 137 231.5t298 86.5q195 0 307 -100.5t112 -272.5v-774h-180v215h-30l30 31q0 -123 -95 -194.5t-253 -71.5q-178 0 -280.5 91t-102.5 246zM317 328 q0 -94 64.5 -148.5t179.5 -54.5q131 0 215 65.5t84 167.5v160h-344q-92 0 -145.5 -51t-53.5 -139z" />
<glyph unicode="b" d="M188 0v1495h185v-328l-4 -256h41l-37 -43q0 127 85 203t222 76q170 0 272.5 -112.5t102.5 -307.5v-330q0 -193 -102.5 -305t-272.5 -112q-139 0 -223 74.5t-84 203.5l37 -43h-37v-215h-185zM373 410q0 -127 66 -199t179 -72q117 0 184.5 70t67.5 201v307 q0 131 -67.5 200.5t-184.5 69.5q-113 0 -179 -71.5t-66 -198.5v-307z" />
<glyph unicode="c" d="M174 410v307q0 135 55.5 231t156.5 147.5t237 51.5q195 0 313.5 -104.5t124.5 -284.5h-184q-6 109 -73 167t-181 58q-121 0 -193 -68.5t-72 -195.5v-309q0 -127 72 -197t193 -70q115 0 181 59.5t73 166.5h184q-6 -180 -124.5 -284.5t-313.5 -104.5q-135 0 -236.5 51 t-157 148t-55.5 231z" />
<glyph unicode="d" d="M174 397v330q0 195 102.5 307.5t272.5 112.5q139 0 223 -76t84 -203l-37 43h41l-4 256v328h184v-1495h-184v215h-37l37 43q0 -129 -84 -203.5t-223 -74.5q-168 0 -271.5 112.5t-103.5 304.5zM358 410q0 -131 67.5 -201t184.5 -70q115 0 180.5 72t65.5 199v307 q0 127 -65.5 198.5t-180.5 71.5q-117 0 -184.5 -69.5t-67.5 -200.5v-307z" />
<glyph unicode="e" d="M174 410v307q0 131 54.5 227t153.5 149.5t232 53.5t232.5 -53.5t154 -149.5t54.5 -227v-199h-701v-108q0 -133 67.5 -204t192.5 -71q106 0 172 38t80 114h185q-18 -141 -138.5 -224t-298.5 -83q-133 0 -232 53t-153.5 150.5t-54.5 226.5zM354 657h535l-15 -16v76 q0 133 -66.5 204.5t-193.5 71.5q-125 0 -192.5 -71.5t-67.5 -204.5v-60z" />
<glyph unicode="f" d="M123 846v168h328v194q0 133 83.5 210t231.5 77h330v-168h-330q-63 0 -97 -29.5t-34 -89.5v-194h461v-168h-461v-846h-184v846h-328z" />
<glyph unicode="g" d="M180 492v237q0 193 100.5 305.5t274.5 112.5q137 0 219 -71.5t82 -194.5l-35 30h35v215h182v-1167q0 -152 -93 -240t-259 -88h-356v168h358q86 0 126 39t40 121v143l4 205h-37l35 31q0 -123 -82 -194.5t-219 -71.5q-174 0 -274.5 113.5t-100.5 306.5zM365 502 q0 -131 64 -201t181 -70q115 0 180.5 72t65.5 199v215q0 127 -65.5 198.5t-180.5 71.5q-117 0 -181 -69.5t-64 -200.5v-215z" />
<glyph unicode="h" d="M188 0v1495h185v-369v-215h39l-39 -43q0 133 79.5 206t221.5 73q170 0 270 -104.5t100 -284.5v-758h-184v737q0 121 -64.5 187.5t-174.5 66.5q-115 0 -181.5 -71.5t-66.5 -202.5v-717h-185z" />
<glyph unicode="i" d="M174 0v168h399v790h-348v168h533v-958h379v-168h-963zM500 1458q0 61 39 97t106 36q68 0 107 -36t39 -97q0 -59 -39 -94t-107 -35t-106 35q-39 35 -39 94z" />
<glyph unicode="j" d="M174 -199h264q127 0 198 69t71 193v895h-471v168h655v-1063q0 -199 -123 -315q-123 -117 -330 -117h-264v170zM643 1458q0 61 39 97t106 36q68 0 107 -36t39 -97q0 -59 -39 -94t-107 -35t-106 35q-39 35 -39 94z" />
<glyph unicode="k" d="M195 0v1495h184v-833h217l328 464h211l-379 -536l385 -590h-215l-328 502h-219v-502h-184z" />
<glyph unicode="l" d="M61 1327v168h564v-1178q0 -70 38.5 -109.5t104.5 -39.5h358v-168h-358q-98 0 -172 39t-115 110.5t-41 167.5v1010h-379z" />
<glyph unicode="m" d="M135 0v1126h162v-135h37l-29 -49q0 94 50.5 149.5t136.5 55.5q94 0 145 -69.5t51 -196.5l-55 110h86l-39 -49q0 94 52 149.5t138 55.5q106 0 165 -80t59 -211v-856h-170v858q0 70 -30 109t-87 39q-55 0 -87 -38t-32 -108v-860h-147v858q0 72 -32 110t-89 38t-86 -38 t-29 -108v-860h-170z" />
<glyph unicode="n" d="M188 0v1126h185v-215h39l-39 -43q0 133 79.5 206t221.5 73q170 0 270 -104.5t100 -284.5v-758h-184v737q0 121 -64.5 185.5t-174.5 64.5q-115 0 -181.5 -69.5t-66.5 -200.5v-717h-185z" />
<glyph unicode="o" d="M174 414v299q0 135 54.5 231t152.5 147.5t233 51.5t233.5 -51.5t153 -147.5t54.5 -229v-301q0 -133 -54.5 -230.5t-153 -148.5t-233.5 -51t-233 51t-152.5 148.5t-54.5 230.5zM358 414q0 -131 68.5 -199t187.5 -68q121 0 188.5 68t67.5 199v299q0 131 -67.5 198.5 t-188.5 67.5q-119 0 -187.5 -67.5t-68.5 -198.5v-299z" />
<glyph unicode="p" d="M188 -369v1495h185v-215h37l-37 -43q0 129 85 204t224 75q170 0 271.5 -111.5t101.5 -306.5v-330q0 -129 -46 -223t-129 -145t-198 -51q-137 0 -223 75.5t-86 202.5l37 -43h-41l4 -256v-328h-185zM373 410q0 -127 67.5 -199t180.5 -72q117 0 183 70t66 201v307 q0 131 -66.5 200.5t-182.5 69.5q-113 0 -180.5 -71.5t-67.5 -198.5v-307z" />
<glyph unicode="q" d="M180 399v330q0 195 100.5 306.5t268.5 111.5q139 0 223 -75t84 -204l-37 43h37v215h184v-1495h-184v328l4 256h-41l37 43q0 -127 -84 -202.5t-223 -75.5q-170 0 -269.5 112.5t-99.5 306.5zM365 410q0 -131 64 -201t181 -70q115 0 180.5 72t65.5 199v307 q0 127 -65.5 198.5t-180.5 71.5q-117 0 -181 -69.5t-64 -200.5v-307z" />
<glyph unicode="r" d="M227 0v1126h181v-215h43l-60 -133q0 182 79 275.5t235 93.5q178 0 283.5 -111.5t105.5 -302.5v-67h-185v51q0 133 -64.5 203.5t-182.5 70.5q-117 0 -183.5 -71.5t-66.5 -202.5v-717h-185z" />
<glyph unicode="s" d="M184 276h185q12 -59 66 -94t145 -35h86q109 0 162 44.5t53 117.5q0 72 -48.5 114t-142.5 56l-151 25q-166 29 -247 103.5t-81 217.5q0 152 96 235t289 83h78q162 0 260 -76t119 -205h-185q-12 53 -61 85t-133 32h-78q-104 0 -152.5 -39t-48.5 -117q0 -70 41 -102.5 t129 -46.5l152 -25q182 -29 265 -106.5t83 -225.5q0 -156 -99.5 -244.5t-299.5 -88.5h-86q-115 0 -200 35.5t-135 101t-61 155.5z" />
<glyph unicode="t" d="M113 958v168h317v318h184v-318h451v-168h-451v-661q0 -129 123 -129h307v-168h-307q-145 0 -226 78t-81 219v661h-317z" />
<glyph unicode="u" d="M184 410v716h185v-716q0 -127 65.5 -198t177.5 -71q115 0 181.5 71t66.5 198v716h184v-716q0 -199 -118.5 -314.5t-313.5 -115.5t-311.5 115.5t-116.5 314.5z" />
<glyph unicode="v" d="M113 1126h188l250 -757q23 -68 41 -130.5t26 -97.5q10 35 29 97.5t39 130.5l244 757h186l-377 -1126h-250z" />
<glyph unicode="w" d="M72 1126h164l112 -798q6 -45 13.5 -97.5t11.5 -87.5q4 35 13 87.5t15 97.5l125 798h176l125 -798q6 -45 15.5 -97.5t13.5 -87.5q4 35 13.5 87.5t15.5 97.5l116 798h156l-188 -1126h-203l-121 778q-8 57 -18.5 114.5t-14.5 90.5q-4 -33 -12 -90t-18 -115l-127 -778h-203z " />
<glyph unicode="x" d="M102 0l400 580l-375 546h217l223 -348q14 -23 27.5 -49.5t21.5 -42.5q6 16 19.5 43t28.5 49l225 348h215l-375 -548l397 -578h-217l-241 369q-14 23 -27.5 52.5t-24.5 47.5q-8 -18 -23 -48t-32 -52l-244 -369h-215z" />
<glyph unicode="y" d="M113 1126h204l263 -696q14 -35 26 -83t21 -81q8 33 20 81t25 83l246 696h198l-555 -1495h-196l165 439z" />
<glyph unicode="z" d="M184 0v184l631 774h-614v168h821v-184l-643 -774h665v-168h-860z" />
<glyph unicode="{" d="M174 655v164h225q133 0 172 48t33 157l-20 336q-6 109 39 184.5t132 115.5t208 40h92v-164h-92q-96 0 -147.5 -44t-47.5 -132l20 -336q8 -133 -63.5 -212t-202.5 -79v10q129 0 202 -79.5t64 -212.5l-20 -336q-4 -88 47 -132t148 -44h92v-164h-92q-121 0 -208 40 t-132 116.5t-39 183.5l20 336q6 109 -33 156.5t-172 47.5h-225z" />
<glyph unicode="|" d="M522 -225v1925h185v-1925h-185z" />
<glyph unicode="}" d="M174 -61h92q96 0 147.5 44t47.5 132l-21 336q-8 133 65 212.5t202 79.5v-10q-131 0 -203 79t-64 212l21 336q4 88 -47.5 132t-147.5 44h-92v164h92q121 0 208 -40t132 -116t39 -184l-20 -336q-6 -109 32.5 -157t171.5 -48h226v-164h-226q-131 0 -171 -48t-33 -156 l20 -336q6 -106 -39 -183t-132 -117t-208 -40h-92v164z" />
<glyph unicode="~" d="M133 522v144q0 121 74 193.5t192 72.5q76 0 129.5 -26.5t91 -66.5t68.5 -80t63.5 -66.5t73.5 -26.5q47 0 72 28.5t25 83.5v144h174v-144q0 -119 -73 -192.5t-194 -73.5q-76 0 -129 26.5t-91 66.5t-68.5 80t-63.5 66.5t-74 26.5q-45 0 -70.5 -28.5t-25.5 -83.5v-144h-174z " />
<glyph unicode="&#xa0;" />
<glyph unicode="&#xa1;" d="M461 1018q0 55 37 88t96 33h41q59 0 96 -32t37 -87q0 -57 -37 -92t-96 -35h-41q-59 0 -96 35t-37 90zM506 -113l43 801h131l43 -801v-256h-217v256z" />
<glyph unicode="&#xa2;" d="M174 410v307q0 135 55.5 231t156.5 147.5t237 51.5q195 0 313.5 -104.5t124.5 -284.5h-184q-6 109 -73 167t-181 58q-121 0 -193 -68.5t-72 -195.5v-309q0 -127 72 -197t193 -70q115 0 181 59.5t73 166.5h184q-6 -180 -124.5 -284.5t-313.5 -104.5q-135 0 -236.5 51 t-157 148t-55.5 231zM573 -287v1700h123v-1700h-123z" />
<glyph unicode="&#xa3;" d="M154 0v205q49 39 100 93t87 112.5t36 109.5q0 88 -20.5 152.5t-50.5 118t-59.5 102.5t-50 107.5t-20.5 136.5q0 117 53.5 201.5t151.5 131t233 46.5t233.5 -46.5t152 -133.5t55.5 -210h-195q0 102 -67.5 164t-180.5 62q-119 0 -184.5 -58.5t-65.5 -167.5q0 -63 20.5 -111 t50.5 -93t59.5 -96.5t50 -120t20.5 -166.5q0 -88 -35.5 -163t-88 -129t-101.5 -83h758v-164h-942zM154 625v163h737v-163h-737z" />
<glyph unicode="&#xa4;" d="M88 1171l129 129l180 -180q47 29 102.5 43.5t116.5 14.5q129 0 228 -64l172 172l125 -125l-170 -170q31 -49 47 -106.5t16 -120.5t-17.5 -121.5t-47.5 -107.5l174 -175l-129 -129l-178 179q-45 -29 -101.5 -44.5t-118.5 -15.5q-63 0 -119.5 15.5t-103.5 44.5l-174 -174 l-127 126l170 173q-33 47 -50 106t-17 123q0 66 18 124t51 107zM346 764q0 -78 36 -139.5t97 -97t137 -35.5t136.5 35.5t95.5 97t35 139.5t-35 139.5t-95.5 97t-136.5 35.5t-137 -35.5t-97 -97t-36 -139.5z" />
<glyph unicode="&#xa5;" d="M72 1495h190l297 -614q25 -51 39 -87t18 -53q4 16 19.5 52t40.5 88l291 614h190l-450 -936v-559h-185v559zM123 246v153h983v-153h-983zM123 553v154h983v-154h-983z" />
<glyph unicode="&#xa6;" d="M522 -225v778h185v-778h-185zM522 922v778h185v-778h-185z" />
<glyph unicode="&#xa7;" d="M158 0h194q18 -68 82 -110t150 -42h61q117 0 178.5 48.5t61.5 128.5q0 74 -52.5 122t-154.5 68l-189 39q-141 29 -227 120t-86 210q0 117 76 200.5t188 94.5v14q-55 0 -114.5 27.5t-100.5 92t-41 173.5q0 152 107.5 241t300.5 89h61q162 0 273.5 -82t132.5 -215h-195 q-14 59 -72.5 96t-138.5 37h-61q-104 0 -162.5 -45t-58.5 -123q0 -66 52 -114t146 -69l185 -38q145 -31 229 -119t84 -213q0 -119 -74.5 -201t-197.5 -82v-14q59 -2 123.5 -35t108.5 -98.5t44 -169.5q0 -160 -112.5 -253t-313.5 -93h-61q-111 0 -202 39.5t-149.5 110.5 t-74.5 165zM362 614q0 -78 44.5 -134t113.5 -70l156 -31q61 -12 107 16.5t72 87t26 129.5q0 72 -45 126.5t-117 68.5l-152 31q-61 12 -107 -15.5t-72 -83t-26 -125.5z" />
<glyph unicode="&#xa8;" d="M256 1458q0 61 36 97t95 36t95 -35.5t36 -97.5q0 -59 -36 -94t-95 -35t-95 35t-36 94zM711 1458q0 61 35.5 97t95.5 36q59 0 95 -35.5t36 -97.5q0 -59 -36 -94t-95 -35t-95 35t-36 94z" />
<glyph unicode="&#xa9;" d="M92 717v307q0 147 65.5 258t183.5 172.5t273 61.5q158 0 275 -61.5t182.5 -172.5t65.5 -258v-307q0 -147 -65.5 -258t-182.5 -172.5t-275 -61.5q-156 0 -273.5 61.5t-183 172t-65.5 258.5zM205 717q0 -117 51 -205t143 -136t215 -48t215.5 48t143.5 136t51 205v307 q0 117 -51 204t-143.5 136t-215.5 49t-215 -49t-143 -136t-51 -204v-307zM369 737v267q0 106 70.5 170.5t185.5 64.5t184.5 -64.5t69.5 -170.5h-134q0 55 -33.5 88.5t-86.5 33.5q-55 0 -89 -33.5t-34 -88.5v-267q0 -55 33.5 -89t89.5 -34q53 0 86.5 34t33.5 89h134 q0 -106 -69.5 -170.5t-184.5 -64.5t-185.5 64.5t-70.5 170.5z" />
<glyph unicode="&#xaa;" d="M358 1098q0 80 57.5 127t157.5 47h207v-82h-207q-53 0 -82.5 -24.5t-29.5 -67.5q0 -45 34.5 -72t92.5 -27q80 0 125 37t45 101h22v-93h-22q-20 -57 -72.5 -89.5t-124.5 -32.5q-92 0 -147.5 48t-55.5 128zM389 1352q10 78 72.5 121t163.5 43q109 0 172 -49.5t63 -135.5 v-399h-96v112h-6v287q0 47 -36 75t-97 28q-53 0 -90 -22.5t-43 -59.5h-103z" />
<glyph unicode="&#xab;" d="M61 573l412 492h217l-422 -487l422 -496h-215zM539 573l411 492h217l-422 -487l422 -496h-215z" />
<glyph unicode="&#xac;" d="M143 686v164h942v-430h-174v266h-768z" />
<glyph unicode="&#xad;" d="M287 594v164h655v-164h-655z" />
<glyph unicode="&#xae;" d="M92 717v307q0 147 65.5 258t183.5 172.5t273 61.5q158 0 275 -61.5t182.5 -172.5t65.5 -258v-307q0 -147 -65.5 -258t-182.5 -172.5t-275 -61.5q-156 0 -273.5 61.5t-183 172t-65.5 258.5zM205 717q0 -117 51 -205t143 -136t215 -48t215.5 48t143.5 136t51 205v307 q0 117 -51 204t-143.5 136t-215.5 49t-215 -49t-143 -136t-51 -204v-307zM389 512v717h234q111 0 175 -58.5t64 -156.5t-64.5 -156.5t-174.5 -58.5h-111v-287h-123zM512 901h111q53 0 83.5 30t30.5 83t-30.5 82.5t-83.5 29.5h-111v-225zM612 825h125l137 -313h-131z" />
<glyph unicode="&#xaf;" d="M287 1372v154h655v-154h-655z" />
<glyph unicode="&#xb0;" d="M307 1219q0 133 85 215t222 82q139 0 223.5 -82t84.5 -215t-84.5 -215t-223.5 -82q-137 0 -222 81.5t-85 215.5zM430 1219q0 -86 50 -139.5t132 -53.5q84 0 135.5 53.5t51.5 139.5q0 88 -51.5 141t-135.5 53q-82 0 -132 -53t-50 -141z" />
<glyph unicode="&#xb1;" d="M133 604v164h391v399h181v-399h391v-164h-391v-461h380v-143h-942v143h381v461h-391z" />
<glyph unicode="&#xb2;" d="M309 1425q6 135 88 215t213 80q139 0 219 -78.5t80 -211.5q0 -72 -43 -146t-118 -129l-263 -194h447v-132h-592v179l332 247q45 33 70.5 79t25.5 91q0 78 -43 122t-115 44t-114.5 -44t-42.5 -122h-144z" />
<glyph unicode="&#xb3;" d="M279 1096h141q0 -72 43 -115t119 -43q72 0 113.5 43t41.5 115t-41 113.5t-112 41.5h-62v138l191 182h-375v131h491v-162l-239 -227v57q135 0 215 -73.5t80 -200.5q0 -131 -82 -209t-221 -78t-221 78t-82 209z" />
<glyph unicode="&#xb4;" d="M434 1321l217 287h199l-227 -287h-189z" />
<glyph unicode="&#xb5;" d="M184 -369v1495h185v-729q0 -123 58 -189.5t185 -66.5q129 0 188.5 66.5t59.5 189.5v729h184v-729q0 -197 -108.5 -307t-302.5 -110q-96 0 -163 25.5t-104.5 62t-48.5 69.5h-8q2 0 10.5 -27.5t15.5 -65.5t9 -71l23 -342h-183z" />
<glyph unicode="&#xb6;" d="M133 983v164q0 158 107.5 253t281.5 95h164v-1864h-164v1004q-174 0 -281.5 96t-107.5 252zM870 -369v1864h164v-1864h-164z" />
<glyph unicode="&#xb7;" d="M444 698q0 80 46.5 127t123.5 47q78 0 124 -47t46 -127q0 -76 -46 -120.5t-124 -44.5t-124 45t-46 120z" />
<glyph unicode="&#xb8;" d="M420 -303h143q45 0 73 23q28 24 28 51q0 35 -57 61q-56 27 -158 27l71 194h117l-43 -125q53 -6 111 -26q57 -20 96 -58q39 -37 39 -90q0 -70 -68 -120t-178 -50h-174v113z" />
<glyph unicode="&#xb9;" d="M317 829v132h269v610l-250 -178v161l199 146h194v-739h213v-132h-625z" />
<glyph unicode="&#xba;" d="M379 1126v164q0 96 64.5 155.5t170.5 59.5t171 -59.5t65 -155.5v-164q0 -96 -65 -155.5t-171 -59.5t-170.5 59.5t-64.5 155.5zM481 1126q0 -59 37 -96t96 -37t96.5 37t37.5 96v164q0 59 -37 96t-97 37q-59 0 -96 -36.5t-37 -96.5v-164z" />
<glyph unicode="&#xbb;" d="M61 1065h215l414 -492l-411 -491h-216l414 493zM539 1065h215l413 -492l-411 -491h-215l413 493z" />
<glyph unicode="&#xbc;" d="M61 829v103h242v483q-8 -14 -26.5 -35.5t-40.5 -42.5l-127 -110v143l143 125h174v-563h199v-103h-564zM184 0l731 1495h129l-731 -1495h-129zM625 143v164l258 359h141l-276 -387v-33h235v182h123v-428h-123v143h-358z" />
<glyph unicode="&#xbd;" d="M61 829v103h242v483q-8 -14 -26.5 -35.5t-40.5 -42.5l-127 -110v143l143 125h174v-563h219v-103h-584zM184 0l731 1495h129l-731 -1495h-129zM645 0v131l246 141q72 41 107.5 83t35.5 87q0 59 -36.5 95t-96.5 36q-59 0 -96 -35.5t-37 -95.5h-123q4 106 75 170t181 64 q115 0 185.5 -63.5t70.5 -166.5q0 -63 -46 -124.5t-130 -108.5l-190 -107v-20q23 4 65.5 10t87.5 6h223v-102h-522z" />
<glyph unicode="&#xbe;" d="M53 1034h123q0 -51 38 -81.5t101 -30.5q61 0 99.5 30.5t38.5 81.5t-38 82t-98 31h-61v117l166 129h-320v102h441v-113l-219 -170v37q113 0 182 -59.5t69 -155.5t-71.5 -155.5t-188.5 -59.5q-119 0 -190.5 59.5t-71.5 155.5zM184 0l731 1495h129l-731 -1495h-129zM625 143 v164l258 359h141l-276 -387v-33h235v182h123v-428h-123v143h-358z" />
<glyph unicode="&#xbf;" d="M225 82q0 117 48.5 207t135.5 143t203 60v215h185v-369h-103q-131 0 -207.5 -67.5t-76.5 -188.5q0 -119 76.5 -187.5t209.5 -68.5h256v-174h-256q-145 0 -250.5 52t-163 149.5t-57.5 228.5zM553 1016q0 55 37 88t96 33h41q59 0 96 -32t37 -87q0 -57 -37 -92t-96 -35h-41 q-59 0 -96 35t-37 90z" />
<glyph unicode="&#xc0;" d="M102 0l390 1495h247l387 -1495h-186l-98 397h-453l-98 -397h-189zM312 1946h205l225 -287h-195zM426 553h377l-115 461q-33 131 -51.5 219t-22.5 115q-4 -27 -22.5 -115t-50.5 -217z" />
<glyph unicode="&#xc1;" d="M102 0l390 1495h247l387 -1495h-186l-98 397h-453l-98 -397h-189zM426 553h377l-115 461q-33 131 -51.5 219t-22.5 115q-4 -27 -22.5 -115t-50.5 -217zM495 1659l217 287h199l-227 -287h-189z" />
<glyph unicode="&#xc2;" d="M102 0l390 1495h247l387 -1495h-186l-98 397h-453l-98 -397h-189zM244 1659l284 287h170l287 -287h-203l-168 160l-163 -160h-207zM426 553h377l-115 461q-33 131 -51.5 219t-22.5 115q-4 -27 -22.5 -115t-50.5 -217z" />
<glyph unicode="&#xc3;" d="M102 0l390 1495h247l387 -1495h-186l-98 397h-453l-98 -397h-189zM287 1679v62q0 92 51 143t133 51q61 0 100 -21.5t66 -50t51.5 -50t59.5 -21.5q29 0 45 17.5t16 54.5v61h133v-61q0 -92 -50 -143.5t-134 -51.5q-61 0 -100.5 21.5t-66 50t-51 50t-59.5 21.5 q-27 0 -44 -17t-17 -54v-62h-133zM426 553h377l-115 461q-33 131 -51.5 219t-22.5 115q-4 -27 -22.5 -115t-50.5 -217z" />
<glyph unicode="&#xc4;" d="M102 0l390 1495h247l387 -1495h-186l-98 397h-453l-98 -397h-189zM256 1802q0 61 36 97t95 36t95 -35.5t36 -97.5q0 -59 -36 -94t-95 -35t-95 35t-36 94zM426 553h377l-115 461q-33 131 -51.5 219t-22.5 115q-4 -27 -22.5 -115t-50.5 -217zM711 1802q0 61 35.5 97 t95.5 36q59 0 95 -35.5t36 -97.5q0 -59 -36 -94t-95 -35t-95 35t-36 94z" />
<glyph unicode="&#xc5;" d="M102 0l390 1495h247l387 -1495h-186l-98 397h-453l-98 -397h-189zM369 1802q0 104 67.5 169t177.5 65q111 0 178.5 -64.5t67.5 -169.5q0 -104 -67.5 -168.5t-178.5 -64.5t-178 64.5t-67 168.5zM426 553h377l-115 461q-33 131 -51.5 219t-22.5 115q-4 -27 -22.5 -115 t-50.5 -217zM492 1802q0 -57 33.5 -91t88.5 -34t89 34t34 91t-33.5 92t-89.5 35q-55 0 -88.5 -34.5t-33.5 -92.5z" />
<glyph unicode="&#xc6;" d="M61 0l297 1495h809v-168h-372v-467h321v-168h-321v-524h372v-168h-549v416h-288l-82 -416h-187zM358 569h260v758h-114z" />
<glyph unicode="&#xc7;" d="M180 410v675q0 135 54.5 231.5t153.5 148t235 51.5q135 0 233 -52.5t151.5 -148.5t53.5 -230h-184q0 127 -67 196t-187 69q-121 0 -189.5 -68t-68.5 -195v-677q0 -127 68.5 -196t189.5 -69t187.5 69t66.5 196h184q0 -131 -53.5 -228.5t-151.5 -149.5t-233 -52t-234.5 51 t-154 148t-54.5 231zM430 -303h143q45 0 73 23.5t28 50.5q0 35 -56.5 61.5t-158.5 26.5l71 194h117l-43 -125q53 -6 110.5 -26.5t96.5 -57.5t39 -90q0 -70 -67.5 -120t-178.5 -50h-174v113z" />
<glyph unicode="&#xc8;" d="M205 0v1495h860v-168h-678v-463h606v-166h-606v-530h678v-168h-860zM353 1946h205l225 -287h-195z" />
<glyph unicode="&#xc9;" d="M205 0v1495h860v-168h-678v-463h606v-166h-606v-530h678v-168h-860zM536 1659l217 287h199l-227 -287h-189z" />
<glyph unicode="&#xca;" d="M205 0v1495h860v-168h-678v-463h606v-166h-606v-530h678v-168h-860zM285 1659l284 287h170l287 -287h-203l-168 160l-163 -160h-207z" />
<glyph unicode="&#xcb;" d="M205 0v1495h860v-168h-678v-463h606v-166h-606v-530h678v-168h-860zM297 1802q0 61 36 97t95 36t95 -35.5t36 -97.5q0 -59 -36 -94t-95 -35t-95 35t-36 94zM752 1802q0 61 35.5 97t95.5 36q59 0 95 -35.5t36 -97.5q0 -59 -36 -94t-95 -35t-95 35t-36 94z" />
<glyph unicode="&#xcc;" d="M215 0v168h305v1159h-305v168h799v-168h-305v-1159h305v-168h-799zM312 1946h205l225 -287h-195z" />
<glyph unicode="&#xcd;" d="M215 0v168h305v1159h-305v168h799v-168h-305v-1159h305v-168h-799zM495 1659l217 287h199l-227 -287h-189z" />
<glyph unicode="&#xce;" d="M215 0v168h305v1159h-305v168h799v-168h-305v-1159h305v-168h-799zM244 1659l284 287h170l287 -287h-203l-168 160l-163 -160h-207z" />
<glyph unicode="&#xcf;" d="M215 0v168h305v1159h-305v168h799v-168h-305v-1159h305v-168h-799zM256 1802q0 61 36 97t95 36t95 -35.5t36 -97.5q0 -59 -36 -94t-95 -35t-95 35t-36 94zM711 1802q0 61 35.5 97t95.5 36q59 0 95 -35.5t36 -97.5q0 -59 -36 -94t-95 -35t-95 35t-36 94z" />
<glyph unicode="&#xd0;" d="M20 686v154h574v-154h-574zM188 0v1495h387q145 0 251 -55.5t164.5 -155.5t58.5 -237v-596q0 -137 -58.5 -238.5t-164 -157t-251.5 -55.5h-387zM373 164h202q135 0 212 75.5t77 211.5v596q0 133 -76.5 208.5t-212.5 75.5h-202v-1167z" />
<glyph unicode="&#xd1;" d="M184 0v1495h246l457 -1280q-4 51 -9.5 126t-8.5 158t-3 156v840h178v-1495h-245l-455 1280q4 -49 8 -124t7 -158t3 -158v-840h-178zM287 1679v62q0 92 51 143t133 51q61 0 100 -21.5t66 -50t51.5 -50t59.5 -21.5q29 0 45 17.5t16 54.5v61h133v-61q0 -92 -50 -143.5 t-134 -51.5q-61 0 -100.5 21.5t-66 50t-51 50t-59.5 21.5q-27 0 -44 -17t-17 -54v-62h-133z" />
<glyph unicode="&#xd2;" d="M180 410v675q0 135 52.5 231.5t149.5 148t232 51.5t232.5 -51.5t150 -147.5t52.5 -230v-677q0 -133 -52.5 -230.5t-150 -148.5t-232.5 -51t-232 51t-149.5 148t-52.5 231zM312 1946h205l225 -287h-195zM365 410q0 -127 65 -196t184 -69q121 0 185.5 69t64.5 196v675 q0 127 -64.5 196t-185.5 69q-119 0 -184 -69t-65 -196v-675z" />
<glyph unicode="&#xd3;" d="M180 410v675q0 135 52.5 231.5t149.5 148t232 51.5t232.5 -51.5t150 -147.5t52.5 -230v-677q0 -133 -52.5 -230.5t-150 -148.5t-232.5 -51t-232 51t-149.5 148t-52.5 231zM365 410q0 -127 65 -196t184 -69q121 0 185.5 69t64.5 196v675q0 127 -64.5 196t-185.5 69 q-119 0 -184 -69t-65 -196v-675zM495 1659l217 287h199l-227 -287h-189z" />
<glyph unicode="&#xd4;" d="M180 410v675q0 135 52.5 231.5t149.5 148t232 51.5t232.5 -51.5t150 -147.5t52.5 -230v-677q0 -133 -52.5 -230.5t-150 -148.5t-232.5 -51t-232 51t-149.5 148t-52.5 231zM244 1659l284 287h170l287 -287h-203l-168 160l-163 -160h-207zM365 410q0 -127 65 -196t184 -69 q121 0 185.5 69t64.5 196v675q0 127 -64.5 196t-185.5 69q-119 0 -184 -69t-65 -196v-675z" />
<glyph unicode="&#xd5;" d="M180 410v675q0 135 52.5 231.5t149.5 148t232 51.5t232.5 -51.5t150 -147.5t52.5 -230v-677q0 -133 -52.5 -230.5t-150 -148.5t-232.5 -51t-232 51t-149.5 148t-52.5 231zM287 1679v62q0 92 51 143t133 51q61 0 100 -21.5t66 -50t51.5 -50t59.5 -21.5q29 0 45 17.5 t16 54.5v61h133v-61q0 -92 -50 -143.5t-134 -51.5q-61 0 -100.5 21.5t-66 50t-51 50t-59.5 21.5q-27 0 -44 -17t-17 -54v-62h-133zM365 410q0 -127 65 -196t184 -69q121 0 185.5 69t64.5 196v675q0 127 -64.5 196t-185.5 69q-119 0 -184 -69t-65 -196v-675z" />
<glyph unicode="&#xd6;" d="M180 410v675q0 135 52.5 231.5t149.5 148t232 51.5t232.5 -51.5t150 -147.5t52.5 -230v-677q0 -133 -52.5 -230.5t-150 -148.5t-232.5 -51t-232 51t-149.5 148t-52.5 231zM256 1802q0 61 36 97t95 36t95 -35.5t36 -97.5q0 -59 -36 -94t-95 -35t-95 35t-36 94zM365 410 q0 -127 65 -196t184 -69q121 0 185.5 69t64.5 196v675q0 127 -64.5 196t-185.5 69q-119 0 -184 -69t-65 -196v-675zM711 1802q0 61 35.5 97t95.5 36q59 0 95 -35.5t36 -97.5q0 -59 -36 -94t-95 -35t-95 35t-36 94z" />
<glyph unicode="&#xd7;" d="M215 385l289 289l-289 291l104 104l291 -289l297 297l105 -106l-297 -297l291 -289l-107 -106l-289 290l-291 -290z" />
<glyph unicode="&#xd8;" d="M72 -82l913 1618h172l-913 -1618h-172zM180 410v675q0 135 52.5 231.5t149.5 148t232 51.5t232.5 -51.5t150 -147.5t52.5 -230v-677q0 -133 -52.5 -230.5t-150 -148.5t-232.5 -51t-232 51t-149.5 148t-52.5 231zM365 410q0 -127 65 -196t184 -69q121 0 185.5 69t64.5 196 v675q0 127 -64.5 196t-185.5 69q-119 0 -184 -69t-65 -196v-675z" />
<glyph unicode="&#xd9;" d="M184 410v1085h185v-1085q0 -123 60 -195t185 -72q123 0 184.5 72t61.5 195v1085h184v-1085q0 -201 -109.5 -315.5t-320.5 -114.5q-209 0 -319.5 115.5t-110.5 314.5zM312 1946h205l225 -287h-195z" />
<glyph unicode="&#xda;" d="M184 410v1085h185v-1085q0 -123 60 -195t185 -72q123 0 184.5 72t61.5 195v1085h184v-1085q0 -201 -109.5 -315.5t-320.5 -114.5q-209 0 -319.5 115.5t-110.5 314.5zM495 1659l217 287h199l-227 -287h-189z" />
<glyph unicode="&#xdb;" d="M184 410v1085h185v-1085q0 -123 60 -195t185 -72q123 0 184.5 72t61.5 195v1085h184v-1085q0 -201 -109.5 -315.5t-320.5 -114.5q-209 0 -319.5 115.5t-110.5 314.5zM244 1659l284 287h170l287 -287h-203l-168 160l-163 -160h-207z" />
<glyph unicode="&#xdc;" d="M184 410v1085h185v-1085q0 -123 60 -195t185 -72q123 0 184.5 72t61.5 195v1085h184v-1085q0 -201 -109.5 -315.5t-320.5 -114.5q-209 0 -319.5 115.5t-110.5 314.5zM256 1802q0 61 36 97t95 36t95 -35.5t36 -97.5q0 -59 -36 -94t-95 -35t-95 35t-36 94zM711 1802 q0 61 35.5 97t95.5 36q59 0 95 -35.5t36 -97.5q0 -59 -36 -94t-95 -35t-95 35t-36 94z" />
<glyph unicode="&#xdd;" d="M72 1495h190l297 -614q25 -51 39 -87t18 -53q4 16 19.5 52t40.5 88l291 614h190l-450 -936v-559h-185v559zM495 1659l217 287h199l-227 -287h-189z" />
<glyph unicode="&#xde;" d="M184 0v1495h185v-307h313q135 0 234.5 -51.5t154.5 -143.5t55 -215q0 -186 -120.5 -297.5t-323.5 -111.5h-313v-369h-185zM369 532h313q119 0 186.5 67t67.5 179q0 115 -68.5 180.5t-185.5 65.5h-313v-492z" />
<glyph unicode="&#xdf;" d="M188 0v1094q0 127 53.5 222t150.5 147.5t229 52.5q131 0 229 -44.5t152.5 -129.5t54.5 -207q0 -102 -44 -182.5t-125 -125.5t-192 -43v31q119 2 206 -45t135 -135t48 -209q0 -125 -55 -221t-153.5 -150.5t-231.5 -54.5h-135v168h115q123 0 194.5 72.5t71.5 191.5 t-70.5 186.5t-195.5 67.5h-90v160h86q115 0 179 71.5t64 180.5q0 119 -65.5 184.5t-177.5 65.5q-113 0 -180.5 -68t-67.5 -186v-1094h-185z" />
<glyph unicode="&#xe0;" d="M133 317q0 158 102.5 248t276.5 90h348v113q0 104 -62.5 160.5t-176.5 56.5q-100 0 -168 -42t-78 -114h-185q18 145 137 231.5t298 86.5q195 0 307 -100.5t112 -272.5v-774h-180v215h-30l30 31q0 -123 -95 -194.5t-253 -71.5q-178 0 -280.5 91t-102.5 246zM317 328 q0 -94 64.5 -148.5t179.5 -54.5q131 0 215 65.5t84 167.5v160h-344q-92 0 -145.5 -51t-53.5 -139zM322 1608h205l225 -287h-195z" />
<glyph unicode="&#xe1;" d="M133 317q0 158 102.5 248t276.5 90h348v113q0 104 -62.5 160.5t-176.5 56.5q-100 0 -168 -42t-78 -114h-185q18 145 137 231.5t298 86.5q195 0 307 -100.5t112 -272.5v-774h-180v215h-30l30 31q0 -123 -95 -194.5t-253 -71.5q-178 0 -280.5 91t-102.5 246zM317 328 q0 -94 64.5 -148.5t179.5 -54.5q131 0 215 65.5t84 167.5v160h-344q-92 0 -145.5 -51t-53.5 -139zM506 1321l217 287h199l-227 -287h-189z" />
<glyph unicode="&#xe2;" d="M133 317q0 158 102.5 248t276.5 90h348v113q0 104 -62.5 160.5t-176.5 56.5q-100 0 -168 -42t-78 -114h-185q18 145 137 231.5t298 86.5q195 0 307 -100.5t112 -272.5v-774h-180v215h-30l30 31q0 -123 -95 -194.5t-253 -71.5q-178 0 -280.5 91t-102.5 246zM254 1321 l285 287h170l286 -287h-202l-168 160l-164 -160h-207zM317 328q0 -94 64.5 -148.5t179.5 -54.5q131 0 215 65.5t84 167.5v160h-344q-92 0 -145.5 -51t-53.5 -139z" />
<glyph unicode="&#xe3;" d="M133 317q0 158 102.5 248t276.5 90h348v113q0 104 -62.5 160.5t-176.5 56.5q-100 0 -168 -42t-78 -114h-185q18 145 137 231.5t298 86.5q195 0 307 -100.5t112 -272.5v-774h-180v215h-30l30 31q0 -123 -95 -194.5t-253 -71.5q-178 0 -280.5 91t-102.5 246zM297 1341v62 q0 92 51 143t133 51q61 0 100 -21.5t66 -50t51.5 -50t59.5 -21.5q29 0 45 17.5t16 54.5v61h133v-61q0 -92 -50 -143.5t-134 -51.5q-61 0 -100.5 21.5t-66 50.5t-51 50.5t-59.5 21.5q-27 0 -44 -17.5t-17 -54.5v-62h-133zM317 328q0 -94 64.5 -148.5t179.5 -54.5 q131 0 215 65.5t84 167.5v160h-344q-92 0 -145.5 -51t-53.5 -139z" />
<glyph unicode="&#xe4;" d="M133 317q0 158 102.5 248t276.5 90h348v113q0 104 -62.5 160.5t-176.5 56.5q-100 0 -168 -42t-78 -114h-185q18 145 137 231.5t298 86.5q195 0 307 -100.5t112 -272.5v-774h-180v215h-30l30 31q0 -123 -95 -194.5t-253 -71.5q-178 0 -280.5 91t-102.5 246zM266 1458 q0 61 36 97t95 36t95 -35.5t36 -97.5q0 -59 -36 -94t-95 -35t-95 35t-36 94zM317 328q0 -94 64.5 -148.5t179.5 -54.5q131 0 215 65.5t84 167.5v160h-344q-92 0 -145.5 -51t-53.5 -139zM721 1458q0 61 35.5 97t95.5 36q59 0 95 -35.5t36 -97.5q0 -59 -36 -94t-95 -35t-95 35 t-36 94z" />
<glyph unicode="&#xe5;" d="M133 317q0 158 102.5 248t276.5 90h348v113q0 104 -62.5 160.5t-176.5 56.5q-100 0 -168 -42t-78 -114h-185q18 145 137 231.5t298 86.5q195 0 307 -100.5t112 -272.5v-774h-180v215h-30l30 31q0 -123 -95 -194.5t-253 -71.5q-178 0 -280.5 91t-102.5 246zM317 328 q0 -94 64.5 -148.5t179.5 -54.5q131 0 215 65.5t84 167.5v160h-344q-92 0 -145.5 -51t-53.5 -139zM379 1479q0 104 67 169q68 65 179 64q111 0 178 -64q68 -65 67 -169q0 -104 -67 -169t-178 -65t-179 65t-67 169zM502 1479q0 -57 34 -91t89 -34t89 34t34 91t-34 92t-89 35 t-89 -35t-34 -92z" />
<glyph unicode="&#xe6;" d="M72 266v123q0 127 85 202t228 75h152v151q0 90 -33 131t-105 41q-57 0 -93 -34.5t-36 -94.5h-174q0 129 75 208t198 79q80 0 133 -26.5t80.5 -64.5t33.5 -73h9q6 35 32.5 73t76.5 64.5t126 26.5q139 0 218 -88t79 -240v-297h-455v-215q0 -76 38 -123t100 -47 q66 0 104.5 35t38.5 94h174q0 -129 -82 -207.5t-215 -78.5q-76 0 -127 26.5t-76.5 64.5t-31.5 72h-9q-6 -35 -36.5 -72.5t-87 -64t-144.5 -26.5q-127 0 -201.5 77.5t-74.5 208.5zM256 266q0 -59 36 -94t97 -35q66 0 107 47t41 123v215h-148q-63 0 -98 -35.5t-35 -97.5v-123z M702 666h281v153q0 78 -38 124t-105 46q-63 0 -100.5 -46t-37.5 -124v-153z" />
<glyph unicode="&#xe7;" d="M174 410v307q0 135 55.5 231t156.5 147.5t237 51.5q195 0 313.5 -104.5t124.5 -284.5h-184q-6 109 -73 167t-181 58q-121 0 -193 -68.5t-72 -195.5v-309q0 -127 72 -197t193 -70q115 0 181 59.5t73 166.5h184q-6 -180 -124.5 -284.5t-313.5 -104.5q-135 0 -236.5 51 t-157 148t-55.5 231zM428 -303h143q45 0 73 23.5t28 50.5q0 35 -56.5 61.5t-158.5 26.5l71 194h117l-43 -125q53 -6 110.5 -26.5t96.5 -57.5t39 -90q0 -70 -67.5 -120t-178.5 -50h-174v113z" />
<glyph unicode="&#xe8;" d="M174 410v307q0 131 54.5 227t153.5 149.5t232 53.5t232.5 -53.5t154 -149.5t54.5 -227v-199h-701v-108q0 -133 67.5 -204t192.5 -71q106 0 172 38t80 114h185q-18 -141 -138.5 -224t-298.5 -83q-133 0 -232 53t-153.5 150.5t-54.5 226.5zM312 1608h205l225 -287h-195z M354 657h535l-15 -16v76q0 133 -66.5 204.5t-193.5 71.5q-125 0 -192.5 -71.5t-67.5 -204.5v-60z" />
<glyph unicode="&#xe9;" d="M174 410v307q0 131 54.5 227t153.5 149.5t232 53.5t232.5 -53.5t154 -149.5t54.5 -227v-199h-701v-108q0 -133 67.5 -204t192.5 -71q106 0 172 38t80 114h185q-18 -141 -138.5 -224t-298.5 -83q-133 0 -232 53t-153.5 150.5t-54.5 226.5zM354 657h535l-15 -16v76 q0 133 -66.5 204.5t-193.5 71.5q-125 0 -192.5 -71.5t-67.5 -204.5v-60zM495 1321l217 287h199l-227 -287h-189z" />
<glyph unicode="&#xea;" d="M174 410v307q0 131 54.5 227t153.5 149.5t232 53.5t232.5 -53.5t154 -149.5t54.5 -227v-199h-701v-108q0 -133 67.5 -204t192.5 -71q106 0 172 38t80 114h185q-18 -141 -138.5 -224t-298.5 -83q-133 0 -232 53t-153.5 150.5t-54.5 226.5zM244 1321l284 287h170l287 -287 h-203l-168 160l-163 -160h-207zM354 657h535l-15 -16v76q0 133 -66.5 204.5t-193.5 71.5q-125 0 -192.5 -71.5t-67.5 -204.5v-60z" />
<glyph unicode="&#xeb;" d="M174 410v307q0 131 54.5 227t153.5 149.5t232 53.5t232.5 -53.5t154 -149.5t54.5 -227v-199h-701v-108q0 -133 67.5 -204t192.5 -71q106 0 172 38t80 114h185q-18 -141 -138.5 -224t-298.5 -83q-133 0 -232 53t-153.5 150.5t-54.5 226.5zM256 1458q0 61 36 97t95 36 t95 -35.5t36 -97.5q0 -59 -36 -94t-95 -35t-95 35t-36 94zM354 657h535l-15 -16v76q0 133 -66.5 204.5t-193.5 71.5q-125 0 -192.5 -71.5t-67.5 -204.5v-60zM711 1458q0 61 35.5 97t95.5 36q59 0 95 -35.5t36 -97.5q0 -59 -36 -94t-95 -35t-95 35t-36 94z" />
<glyph unicode="&#xec;" d="M174 0v168h399v790h-348v168h533v-958h379v-168h-963zM342 1608h205l225 -287h-195z" />
<glyph unicode="&#xed;" d="M174 0v168h399v790h-348v168h533v-958h379v-168h-963zM526 1321l217 287h199l-227 -287h-189z" />
<glyph unicode="&#xee;" d="M174 0v168h399v790h-348v168h533v-958h379v-168h-963zM274 1321l285 287h170l287 -287h-203l-168 160l-164 -160h-207z" />
<glyph unicode="&#xef;" d="M174 0v168h399v790h-348v168h533v-958h379v-168h-963zM287 1458q0 61 36 97t95 36t95 -35.5t36 -97.5q0 -59 -36 -94t-95 -35t-95 35t-36 94zM742 1458q0 61 35.5 97t95.5 36q59 0 95 -35.5t36 -97.5q0 -59 -36 -94t-95 -35t-95 35t-36 94z" />
<glyph unicode="&#xf0;" d="M143 440q0 137 54.5 238.5t151.5 158t226 56.5q59 0 106.5 -18.5t80.5 -45t47 -51.5h29q-8 20 -41 74.5t-90 130.5l-134 186l-333 -155v164l245 114l-147 203h213l90 -131l303 141v-164l-217 -100l160 -231q90 -131 144 -276.5t54 -276.5q0 -143 -59 -251t-165 -167 t-249 -59q-139 0 -245.5 57t-165 161.5t-58.5 241.5zM328 440q0 -133 78.5 -215t205.5 -82q131 0 210 82t79 215q0 90 -36 157t-100.5 103.5t-152.5 36.5q-127 0 -205.5 -82t-78.5 -215z" />
<glyph unicode="&#xf1;" d="M188 0v1126h185v-215h39l-39 -43q0 133 79.5 206t221.5 73q170 0 270 -104.5t100 -284.5v-758h-184v737q0 121 -64.5 185.5t-174.5 64.5q-115 0 -181.5 -69.5t-66.5 -200.5v-717h-185zM297 1341v62q0 92 51 143t133 51q61 0 100 -21.5t66 -50t51.5 -50t59.5 -21.5 q29 0 45 17.5t16 54.5v61h133v-61q0 -92 -50 -143.5t-134 -51.5q-61 0 -100.5 21.5t-66 50.5t-51 50.5t-59.5 21.5q-27 0 -44 -17.5t-17 -54.5v-62h-133z" />
<glyph unicode="&#xf2;" d="M174 414v299q0 135 54.5 231t152.5 147.5t233 51.5t233.5 -51.5t153 -147.5t54.5 -229v-301q0 -133 -54.5 -230.5t-153 -148.5t-233.5 -51t-233 51t-152.5 148.5t-54.5 230.5zM312 1608h205l225 -287h-195zM358 414q0 -131 68.5 -199t187.5 -68q121 0 188.5 68t67.5 199 v299q0 131 -67.5 198.5t-188.5 67.5q-119 0 -187.5 -67.5t-68.5 -198.5v-299z" />
<glyph unicode="&#xf3;" d="M174 414v299q0 135 54.5 231t152.5 147.5t233 51.5t233.5 -51.5t153 -147.5t54.5 -229v-301q0 -133 -54.5 -230.5t-153 -148.5t-233.5 -51t-233 51t-152.5 148.5t-54.5 230.5zM358 414q0 -131 68.5 -199t187.5 -68q121 0 188.5 68t67.5 199v299q0 131 -67.5 198.5 t-188.5 67.5q-119 0 -187.5 -67.5t-68.5 -198.5v-299zM495 1321l217 287h199l-227 -287h-189z" />
<glyph unicode="&#xf4;" d="M174 414v299q0 135 54.5 231t152.5 147.5t233 51.5t233.5 -51.5t153 -147.5t54.5 -229v-301q0 -133 -54.5 -230.5t-153 -148.5t-233.5 -51t-233 51t-152.5 148.5t-54.5 230.5zM244 1321l284 287h170l287 -287h-203l-168 160l-163 -160h-207zM358 414q0 -131 68.5 -199 t187.5 -68q121 0 188.5 68t67.5 199v299q0 131 -67.5 198.5t-188.5 67.5q-119 0 -187.5 -67.5t-68.5 -198.5v-299z" />
<glyph unicode="&#xf5;" d="M174 414v299q0 135 54.5 231t152.5 147.5t233 51.5t233.5 -51.5t153 -147.5t54.5 -229v-301q0 -133 -54.5 -230.5t-153 -148.5t-233.5 -51t-233 51t-152.5 148.5t-54.5 230.5zM287 1341v62q0 92 51 143t133 51q61 0 100 -21.5t66 -50t51.5 -50t59.5 -21.5q29 0 45 17.5 t16 54.5v61h133v-61q0 -92 -50 -143.5t-134 -51.5q-61 0 -100.5 21.5t-66 50.5t-51 50.5t-59.5 21.5q-27 0 -44 -17.5t-17 -54.5v-62h-133zM358 414q0 -131 68.5 -199t187.5 -68q121 0 188.5 68t67.5 199v299q0 131 -67.5 198.5t-188.5 67.5q-119 0 -187.5 -67.5 t-68.5 -198.5v-299z" />
<glyph unicode="&#xf6;" d="M174 414v299q0 135 54.5 231t152.5 147.5t233 51.5t233.5 -51.5t153 -147.5t54.5 -229v-301q0 -133 -54.5 -230.5t-153 -148.5t-233.5 -51t-233 51t-152.5 148.5t-54.5 230.5zM256 1458q0 61 36 97t95 36t95 -35.5t36 -97.5q0 -59 -36 -94t-95 -35t-95 35t-36 94z M358 414q0 -131 68.5 -199t187.5 -68q121 0 188.5 68t67.5 199v299q0 131 -67.5 198.5t-188.5 67.5q-119 0 -187.5 -67.5t-68.5 -198.5v-299zM711 1458q0 61 35.5 97t95.5 36q59 0 95 -35.5t36 -97.5q0 -59 -36 -94t-95 -35t-95 35t-36 94z" />
<glyph unicode="&#xf7;" d="M205 604v154h819v-154h-819zM461 295q0 55 37 90t96 35h41q59 0 96 -35t37 -90t-37 -88t-96 -33h-41q-59 0 -96 32t-37 89zM461 1063q0 55 37 90t96 35h41q59 0 96 -35t37 -90t-37 -88t-96 -33h-41q-59 0 -96 32t-37 89z" />
<glyph unicode="&#xf8;" d="M72 -61l899 1269h186l-901 -1269h-184zM180 410v307q0 135 52.5 231t149.5 147.5t232 51.5t232.5 -51.5t150 -147.5t52.5 -229v-309q0 -133 -52.5 -230.5t-150 -148.5t-232.5 -51t-232 51t-149.5 148t-52.5 231zM354 410q0 -125 68.5 -196t191.5 -71t191.5 71t68.5 196 v307q0 127 -68.5 196.5t-191.5 69.5t-191.5 -69.5t-68.5 -196.5v-307z" />
<glyph unicode="&#xf9;" d="M184 410v716h185v-716q0 -127 65.5 -198t177.5 -71q115 0 181.5 71t66.5 198v716h184v-716q0 -199 -118.5 -314.5t-313.5 -115.5t-311.5 115.5t-116.5 314.5zM312 1608h205l225 -287h-195z" />
<glyph unicode="&#xfa;" d="M184 410v716h185v-716q0 -127 65.5 -198t177.5 -71q115 0 181.5 71t66.5 198v716h184v-716q0 -199 -118.5 -314.5t-313.5 -115.5t-311.5 115.5t-116.5 314.5zM495 1321l217 287h199l-227 -287h-189z" />
<glyph unicode="&#xfb;" d="M184 410v716h185v-716q0 -127 65.5 -198t177.5 -71q115 0 181.5 71t66.5 198v716h184v-716q0 -199 -118.5 -314.5t-313.5 -115.5t-311.5 115.5t-116.5 314.5zM244 1321l284 287h170l287 -287h-203l-168 160l-163 -160h-207z" />
<glyph unicode="&#xfc;" d="M184 410v716h185v-716q0 -127 65.5 -198t177.5 -71q115 0 181.5 71t66.5 198v716h184v-716q0 -199 -118.5 -314.5t-313.5 -115.5t-311.5 115.5t-116.5 314.5zM256 1458q0 61 36 97t95 36t95 -35.5t36 -97.5q0 -59 -36 -94t-95 -35t-95 35t-36 94zM711 1458q0 61 35.5 97 t95.5 36q59 0 95 -35.5t36 -97.5q0 -59 -36 -94t-95 -35t-95 35t-36 94z" />
<glyph unicode="&#xfd;" d="M113 1126h204l263 -696q14 -35 26 -83t21 -81q8 33 20 81t25 83l246 696h198l-555 -1495h-196l165 439zM495 1321l217 287h199l-227 -287h-189z" />
<glyph unicode="&#xfe;" d="M178 0v1495h184v-328l-4 -256h41l-37 -43q0 127 85 203t223 76q170 0 272 -112.5t102 -307.5v-330q0 -193 -102 -305t-272 -112q-139 0 -223.5 74.5t-84.5 203.5l37 -43h-37v-215h-184zM178 121h184v-469h-184v469zM362 410q0 -127 66.5 -199t179.5 -72q117 0 184.5 70 t67.5 201v307q0 131 -67.5 200.5t-184.5 69.5q-113 0 -179.5 -71.5t-66.5 -198.5v-307z" />
<glyph unicode="&#xff;" d="M113 1126h204l263 -696q14 -35 26 -83t21 -81q8 33 20 81t25 83l246 696h198l-555 -1495h-196l165 439zM256 1458q0 61 36 97t95 36t95 -35.5t36 -97.5q0 -59 -36 -94t-95 -35t-95 35t-36 94zM711 1458q0 61 35.5 97t95.5 36q59 0 95 -35.5t36 -97.5q0 -59 -36 -94 t-95 -35t-95 35t-36 94z" />
<glyph unicode="&#x152;" d="M82 369v757q0 121 38 208t109.5 134.5t169.5 47.5q72 0 119 -30t73.5 -72t33.5 -83h10v164h543v-168h-363v-471h311v-168h-311v-520h363v-168h-543v164h-10q-6 -39 -33 -82t-74 -72.5t-119 -29.5q-98 0 -169.5 47t-109.5 135t-38 207zM266 369q0 -104 49.5 -165 t135.5 -61t135 60.5t49 165.5v757q0 104 -49 165t-135 61t-135.5 -60.5t-49.5 -165.5v-757z" />
<glyph unicode="&#x153;" d="M72 307v512q0 152 79.5 240t217.5 88q82 0 134 -26.5t78.5 -64.5t28.5 -73h8q4 35 30 73t78 64.5t134 26.5q137 0 217 -88t80 -240v-307h-455v-205q0 -78 37 -124t101 -46q53 0 91 33t46 86h174q-20 -127 -98 -201.5t-193 -74.5q-82 0 -134 26.5t-77.5 64.5t-30.5 72h-8 q-2 -35 -28.5 -72.5t-78.5 -64t-134 -26.5q-137 0 -217 89t-80 238zM246 307q0 -78 38.5 -124t104.5 -46q63 0 100 46t37 124v512q0 78 -36.5 124t-100.5 46q-66 0 -104.5 -46t-38.5 -124v-512zM702 662h281v157q0 78 -39 124t-104 46q-63 0 -100.5 -46t-37.5 -124v-157z " />
<glyph unicode="&#x2c6;" d="M244 1321l284 287h170l287 -287h-203l-168 160l-163 -160h-207z" />
<glyph unicode="&#x2dc;" d="M287 1341v62q0 92 51 143t133 51q61 0 100 -21.5t66 -50t51.5 -50t59.5 -21.5q29 0 45 17.5t16 54.5v61h133v-61q0 -92 -50 -143.5t-134 -51.5q-61 0 -100.5 21.5t-66 50.5t-51 50.5t-59.5 21.5q-27 0 -44 -17.5t-17 -54.5v-62h-133z" />
<glyph unicode="&#x2000;" horiz-adv-x="1018" />
<glyph unicode="&#x2001;" horiz-adv-x="2036" />
<glyph unicode="&#x2002;" horiz-adv-x="1018" />
<glyph unicode="&#x2003;" horiz-adv-x="2036" />
<glyph unicode="&#x2004;" horiz-adv-x="678" />
<glyph unicode="&#x2005;" horiz-adv-x="509" />
<glyph unicode="&#x2006;" horiz-adv-x="339" />
<glyph unicode="&#x2007;" horiz-adv-x="339" />
<glyph unicode="&#x2008;" horiz-adv-x="254" />
<glyph unicode="&#x2009;" horiz-adv-x="407" />
<glyph unicode="&#x200a;" horiz-adv-x="113" />
<glyph unicode="&#x2010;" d="M287 594v164h655v-164h-655z" />
<glyph unicode="&#x2011;" d="M287 594v164h655v-164h-655z" />
<glyph unicode="&#x2012;" d="M287 594v164h655v-164h-655z" />
<glyph unicode="&#x2013;" d="M164 594v164h901v-164h-901z" />
<glyph unicode="&#x2014;" d="M0 594v164h1229v-164h-1229z" />
<glyph unicode="&#x2018;" d="M471 951l266 637h164l-164 -637h-266z" />
<glyph unicode="&#x2019;" d="M328 952l164 637h266l-266 -637h-164z" />
<glyph unicode="&#x201a;" d="M338 -328l164 637h266l-266 -637h-164z" />
<glyph unicode="&#x201c;" d="M154 952l266 637h164l-164 -637h-266zM625 952l266 637h164l-164 -637h-266z" />
<glyph unicode="&#x201d;" d="M174 952l164 637h266l-266 -637h-164zM645 952l164 637h266l-266 -637h-164z" />
<glyph unicode="&#x201e;" d="M174 -328l164 637h266l-266 -637h-164zM645 -328l164 637h266l-266 -637h-164z" />
<glyph unicode="&#x2022;" d="M369 748q0 109 69.5 177t175.5 68q109 0 177.5 -68.5t68.5 -176.5q0 -106 -68.5 -176t-177.5 -70q-106 0 -175.5 69.5t-69.5 176.5z" />
<glyph unicode="&#x2026;" d="M123 92v144q0 51 28.5 81.5t73.5 30.5q47 0 75 -30.5t28 -81.5v-144q0 -51 -28 -81.5t-75 -30.5q-45 0 -73.5 30.5t-28.5 81.5zM512 92v144q0 51 28.5 81.5t73.5 30.5q47 0 75 -30.5t28 -81.5v-144q0 -51 -28 -81.5t-75 -30.5q-45 0 -73.5 30.5t-28.5 81.5zM901 92v144 q0 51 28.5 81.5t74.5 30.5q47 0 74.5 -30.5t27.5 -81.5v-144q0 -51 -27.5 -81.5t-74.5 -30.5q-45 0 -74 30.5t-29 81.5z" />
<glyph unicode="&#x202f;" horiz-adv-x="407" />
<glyph unicode="&#x2039;" d="M301 573l414 492h209l-418 -487l424 -496h-215z" />
<glyph unicode="&#x203a;" d="M301 1065h215l414 -492l-414 -491h-209l418 487z" />
<glyph unicode="&#x205f;" horiz-adv-x="509" />
<glyph unicode="&#x20ac;" d="M39 502v133h166v205h-166v133h166v82q0 135 55 233t156.5 152.5t238.5 54.5q127 0 223.5 -48t155 -137t72.5 -214h-184q-12 111 -83 173t-184 62q-123 0 -194.5 -73.5t-71.5 -202.5v-82h338v-133h-338v-205h338v-133h-338v-82q0 -129 70.5 -203t195.5 -74 q113 0 183.5 62.5t83.5 173.5h184q-14 -125 -72.5 -214t-155 -137t-223.5 -48q-137 0 -238.5 54t-156.5 153.5t-55 232.5v82h-166z" />
<glyph unicode="&#x2122;" d="M31 1393v102h532v-102h-205v-635h-122v635h-205zM635 758v737h164l69 -209q10 -29 19.5 -73t13.5 -72q4 29 11.5 72.5t17.5 72.5l67 209h160v-737h-113v452q0 39 2.5 81t6.5 80t6 63q-12 -41 -26.5 -93.5t-20.5 -70.5l-62 -211h-104l-68 213q-6 18 -20.5 69.5t-26.5 92.5 q4 -25 7 -63t6.5 -80t3.5 -81v-452h-113z" />
<glyph unicode="&#x25fc;" horiz-adv-x="1126" d="M0 0v1126h1126v-1126h-1126z" />
</font>
</defs>
</svg>
